<?xml version="1.0" encoding="UTF-8"?>
<!-- Created with Inkscape (http://www.inkscape.org/) -->
<svg width="151.83mm" height="18.889mm" version="1.1" viewBox="0 0 151.83 18.889" xml:space="preserve" xmlns="http://www.w3.org/2000/svg" xmlns:xlink="http://www.w3.org/1999/xlink"><defs><linearGradient id="linearGradient31149" x1="69.744" x2="69.744" y1="94.071" y2="93.924" gradientUnits="userSpaceOnUse"><stop stop-color="#e3a1c8" offset="0"/><stop stop-color="#ffdbea" offset="1"/></linearGradient></defs><g transform="translate(-32.046 -81.868)"><g fill="#7d1f16" stroke="#fff" stroke-width="4" aria-label="Hello There!"><path d="m34.046 83.868v14.889h3.1905v-6.381h5.3175v6.381h3.1905v-14.889h-3.1905v6.381h-5.3175v-6.381z"/><path d="m46.808 90.866v5.1473l2.7438 2.7438h6.8276v-2.127h-4.8708l-1.5102-1.5102v-0.61683h8.508v-3.6372l-2.7438-2.7438h-6.2108zm4.7006-0.61683h2.2972l1.5102 1.5102v0.61683h-5.3175v-0.61683z"/><path d="m61.697 85.995h2.127v10.635h-2.127v2.127h7.4445v-2.127h-2.127v-12.762h-5.3175z"/><path d="m74.459 85.995h2.127v10.635h-2.127v2.127h7.4445v-2.127h-2.127v-12.762h-5.3175z"/><path d="m85.094 90.866v5.1473l2.7438 2.7438h6.2108l2.7438-2.7438v-5.1473l-2.7438-2.7438h-6.2108zm4.7006-0.61683h2.2971l1.5102 1.5102v3.3606l-1.5102 1.5102h-2.2971l-1.5102-1.5102v-3.3606z"/><path d="m110.62 85.995h4.254v12.762h3.1905v-12.762h4.254v-2.127h-11.698z"/><path d="m123.38 83.868v14.889h3.1905v-8.508h3.8073l1.5102 1.5102v6.9978h3.1905v-7.8911l-2.7438-2.7438h-5.7641v-4.254z"/><path d="m136.14 90.866v5.1473l2.7438 2.7438h6.8276v-2.127h-4.8708l-1.5102-1.5102v-0.61683h8.508v-3.6372l-2.7438-2.7438h-6.2108zm4.7006-0.61683h2.2972l1.5102 1.5102v0.61683h-5.3175v-0.61683z"/><path d="m151.03 88.122v10.635h3.1905v-6.381h1.5102l2.127-2.127h2.7438v-2.127h-4.7006l-1.6803 1.6803v-1.6803z"/><path d="m161.67 90.866v5.1473l2.7438 2.7438h6.8276v-2.127h-4.8708l-1.5102-1.5102v-0.61683h8.508v-3.6372l-2.7438-2.7438h-6.2108zm4.7006-0.61683h2.2971l1.5102 1.5102v0.61683h-5.3175v-0.61683z"/><path d="m178.68 83.868v10.635h3.1905v-10.635zm0 14.889h3.1905v-2.127h-3.1905z"/></g><g fill="#2d1427" stroke="#2d1427" stroke-width="3" aria-label="Hello There!"><path d="m34.046 83.868v14.889h3.1905v-6.381h5.3175v6.381h3.1905v-14.889h-3.1905v6.381h-5.3175v-6.381z"/><path d="m46.808 90.866v5.1473l2.7438 2.7438h6.8276v-2.127h-4.8708l-1.5102-1.5102v-0.61683h8.508v-3.6372l-2.7438-2.7438h-6.2108zm4.7006-0.61683h2.2972l1.5102 1.5102v0.61683h-5.3175v-0.61683z"/><path d="m61.697 85.995h2.127v10.635h-2.127v2.127h7.4445v-2.127h-2.127v-12.762h-5.3175z"/><path d="m74.459 85.995h2.127v10.635h-2.127v2.127h7.4445v-2.127h-2.127v-12.762h-5.3175z"/><path d="m85.094 90.866v5.1473l2.7438 2.7438h6.2108l2.7438-2.7438v-5.1473l-2.7438-2.7438h-6.2108zm4.7006-0.61683h2.2971l1.5102 1.5102v3.3606l-1.5102 1.5102h-2.2971l-1.5102-1.5102v-3.3606z"/><path d="m110.62 85.995h4.254v12.762h3.1905v-12.762h4.254v-2.127h-11.698z"/><path d="m123.38 83.868v14.889h3.1905v-8.508h3.8073l1.5102 1.5102v6.9978h3.1905v-7.8911l-2.7438-2.7438h-5.7641v-4.254z"/><path d="m136.14 90.866v5.1473l2.7438 2.7438h6.8276v-2.127h-4.8708l-1.5102-1.5102v-0.61683h8.508v-3.6372l-2.7438-2.7438h-6.2108zm4.7006-0.61683h2.2972l1.5102 1.5102v0.61683h-5.3175v-0.61683z"/><path d="m151.03 88.122v10.635h3.1905v-6.381h1.5102l2.127-2.127h2.7438v-2.127h-4.7006l-1.6803 1.6803v-1.6803z"/><path d="m161.67 90.866v5.1473l2.7438 2.7438h6.8276v-2.127h-4.8708l-1.5102-1.5102v-0.61683h8.508v-3.6372l-2.7438-2.7438h-6.2108zm4.7006-0.61683h2.2971l1.5102 1.5102v0.61683h-5.3175v-0.61683z"/><path d="m178.68 83.868v10.635h3.1905v-10.635zm0 14.889h3.1905v-2.127h-3.1905z"/></g><g fill="url(#linearGradient31149)" stroke="#fcc2ff" stroke-width="0" aria-label="Hello There!"><path d="m34.046 83.002v14.889h3.1905v-6.381h5.3175v6.381h3.1905v-14.889h-3.1905v6.381h-5.3175v-6.381z"/><path d="m46.808 90v5.1473l2.7438 2.7438h6.8276v-2.127h-4.8708l-1.5102-1.5102v-0.61683h8.508v-3.6372l-2.7438-2.7438h-6.2108zm4.7006-0.61683h2.2972l1.5102 1.5102v0.61683h-5.3175v-0.61683z"/><path d="m61.697 85.129h2.127v10.635h-2.127v2.127h7.4445v-2.127h-2.127v-12.762h-5.3175z"/><path d="m74.459 85.129h2.127v10.635h-2.127v2.127h7.4445v-2.127h-2.127v-12.762h-5.3175z"/><path d="m85.094 90v5.1473l2.7438 2.7438h6.2108l2.7438-2.7438v-5.1473l-2.7438-2.7438h-6.2108zm4.7006-0.61683h2.2971l1.5102 1.5102v3.3606l-1.5102 1.5102h-2.2971l-1.5102-1.5102v-3.3606z"/><path d="m110.62 85.129h4.254v12.762h3.1905v-12.762h4.254v-2.127h-11.698z"/><path d="m123.38 83.002v14.889h3.1905v-8.508h3.8073l1.5102 1.5102v6.9978h3.1905v-7.8911l-2.7438-2.7438h-5.7641v-4.254z"/><path d="m136.14 90v5.1473l2.7438 2.7438h6.8276v-2.127h-4.8708l-1.5102-1.5102v-0.61683h8.508v-3.6372l-2.7438-2.7438h-6.2108zm4.7006-0.61683h2.2972l1.5102 1.5102v0.61683h-5.3175v-0.61683z"/><path d="m151.03 87.256v10.635h3.1905v-6.381h1.5102l2.127-2.127h2.7438v-2.127h-4.7006l-1.6803 1.6803v-1.6803z"/><path d="m161.67 90v5.1473l2.7438 2.7438h6.8276v-2.127h-4.8708l-1.5102-1.5102v-0.61683h8.508v-3.6372l-2.7438-2.7438h-6.2108zm4.7006-0.61683h2.2971l1.5102 1.5102v0.61683h-5.3175v-0.61683z"/><path d="m178.68 83.002v10.635h3.1905v-10.635zm0 14.889h3.1905v-2.127h-3.1905z"/></g></g></svg>
