<?xml version="1.0" encoding="UTF-8"?>
<!-- Created with Inkscape (http://www.inkscape.org/) -->
<svg width="105.03mm" height="23.143mm" version="1.1" viewBox="0 0 105.03 23.143" xml:space="preserve" xmlns="http://www.w3.org/2000/svg" xmlns:xlink="http://www.w3.org/1999/xlink"><defs><linearGradient id="linearGradient31147"><stop stop-color="#e3a1c8" offset="0"/><stop stop-color="#ffdbea" offset="1"/></linearGradient><linearGradient id="linearGradient31149" x1="69.744" x2="69.744" y1="94.071" y2="93.924" gradientUnits="userSpaceOnUse" xlink:href="#linearGradient31147"/></defs><g transform="translate(-32.046 -81.868)"><g fill="#7d1f16" stroke="#fff" stroke-width="4" aria-label="My Links"><path d="m34.046 83.868v14.889h3.1905v-10.188l1.0635 1.0635v2.7438h3.1905v-2.7438l1.0635-1.0635v10.188h3.1905v-14.889h-3.1905v2.127h-1.5102l-1.1486 1.1486-1.1486-1.1486h-1.5102v-2.127z"/><path d="m46.808 88.122v7.8911l2.7438 2.7438h5.7641v0.61683l-1.5102 1.5102h-4.8708v2.127h6.8276l2.7438-2.7438v-12.145h-3.1905v8.508h-3.8073l-1.5102-1.5102v-6.9978z"/><path d="m72.332 83.868v14.889h11.698v-2.127h-8.508v-12.762z"/><path d="m87.221 90.249h2.127v6.381h-2.127v2.127h7.4445v-2.127h-2.127v-8.508h-5.3175zm2.127-4.254h3.1905v-2.127h-3.1905z"/><path d="m97.856 88.122v10.635h3.1905v-8.508h3.8073l1.5102 1.5102v6.9978h3.1905v-7.8911l-2.7438-2.7438z"/><path d="m112.74 83.868v14.889h3.1905v-3.8073l3.8073 3.8073h2.5737v-1.5102l-3.8073-3.8073 3.8073-3.8073v-1.5102h-2.5737l-3.8073 3.8073v-8.0613z"/><path d="m123.38 91.759 2.7438 2.7438h4.254l1.0635 1.0635-1.0635 1.0635h-6.9978v2.127h8.9546l2.7438-2.7438v-0.89334l-2.7438-2.7438h-4.254l-1.0635-1.0635 1.0635-1.0635h6.9978v-2.127h-8.9546l-2.7438 2.7438z"/></g><g fill="#2d1427" stroke="#2d1427" stroke-width="3" aria-label="My Links"><path d="m34.046 83.868v14.889h3.1905v-10.188l1.0635 1.0635v2.7438h3.1905v-2.7438l1.0635-1.0635v10.188h3.1905v-14.889h-3.1905v2.127h-1.5102l-1.1486 1.1486-1.1486-1.1486h-1.5102v-2.127z"/><path d="m46.808 88.122v7.8911l2.7438 2.7438h5.7641v0.61683l-1.5102 1.5102h-4.8708v2.127h6.8276l2.7438-2.7438v-12.145h-3.1905v8.508h-3.8073l-1.5102-1.5102v-6.9978z"/><path d="m72.332 83.868v14.889h11.698v-2.127h-8.508v-12.762z"/><path d="m87.221 90.249h2.127v6.381h-2.127v2.127h7.4445v-2.127h-2.127v-8.508h-5.3175zm2.127-4.254h3.1905v-2.127h-3.1905z"/><path d="m97.856 88.122v10.635h3.1905v-8.508h3.8073l1.5102 1.5102v6.9978h3.1905v-7.8911l-2.7438-2.7438z"/><path d="m112.74 83.868v14.889h3.1905v-3.8073l3.8073 3.8073h2.5737v-1.5102l-3.8073-3.8073 3.8073-3.8073v-1.5102h-2.5737l-3.8073 3.8073v-8.0613z"/><path d="m123.38 91.759 2.7438 2.7438h4.254l1.0635 1.0635-1.0635 1.0635h-6.9978v2.127h8.9546l2.7438-2.7438v-0.89334l-2.7438-2.7438h-4.254l-1.0635-1.0635 1.0635-1.0635h6.9978v-2.127h-8.9546l-2.7438 2.7438z"/></g><g fill="url(#linearGradient31149)" stroke="#fcc2ff" stroke-width="0" aria-label="My Links"><path d="m34.046 83.002v14.889h3.1905v-10.188l1.0635 1.0635v2.7438h3.1905v-2.7438l1.0635-1.0635v10.188h3.1905v-14.889h-3.1905v2.127h-1.5102l-1.1486 1.1486-1.1486-1.1486h-1.5102v-2.127z"/><path d="m46.808 87.256v7.8911l2.7438 2.7438h5.7641v0.61683l-1.5102 1.5102h-4.8708v2.127h6.8276l2.7438-2.7438v-12.145h-3.1905v8.508h-3.8073l-1.5102-1.5102v-6.9978z"/><path d="m72.332 83.002v14.889h11.698v-2.127h-8.508v-12.762z"/><path d="m87.221 89.383h2.127v6.381h-2.127v2.127h7.4445v-2.127h-2.127v-8.508h-5.3175zm2.127-4.254h3.1905v-2.127h-3.1905z"/><path d="m97.856 87.256v10.635h3.1905v-8.508h3.8073l1.5102 1.5102v6.9978h3.1905v-7.8911l-2.7438-2.7438z"/><path d="m112.74 83.002v14.889h3.1905v-3.8073l3.8073 3.8073h2.5737v-1.5102l-3.8073-3.8073 3.8073-3.8073v-1.5102h-2.5737l-3.8073 3.8073v-8.0613z"/><path d="m123.38 90.893 2.7438 2.7438h4.254l1.0635 1.0635-1.0635 1.0635h-6.9978v2.127h8.9546l2.7438-2.7438v-0.89334l-2.7438-2.7438h-4.254l-1.0635-1.0635 1.0635-1.0635h6.9978v-2.127h-8.9546l-2.7438 2.7438z"/></g></g></svg>
