<?xml version="1.0" encoding="UTF-8" standalone="no"?>
<!-- Created with Inkscape (http://www.inkscape.org/) -->

<svg
   width="105.03208mm"
   height="18.888929mm"
   viewBox="0 0 105.03208 18.888929"
   version="1.1"
   id="svg5"
   xml:space="preserve"
   inkscape:version="1.2.2 (732a01da63, 2022-12-09)"
   sodipodi:docname="the-name.svg"
   xmlns:inkscape="http://www.inkscape.org/namespaces/inkscape"
   xmlns:sodipodi="http://sodipodi.sourceforge.net/DTD/sodipodi-0.dtd"
   xmlns:xlink="http://www.w3.org/1999/xlink"
   xmlns="http://www.w3.org/2000/svg"
   xmlns:svg="http://www.w3.org/2000/svg"><sodipodi:namedview
     id="namedview7"
     pagecolor="#ffffff"
     bordercolor="#999999"
     borderopacity="1"
     inkscape:showpageshadow="0"
     inkscape:pageopacity="0"
     inkscape:pagecheckerboard="0"
     inkscape:deskcolor="#d1d1d1"
     inkscape:document-units="mm"
     showgrid="false"
     inkscape:zoom="2.7010662"
     inkscape:cx="240.09038"
     inkscape:cy="39.613987"
     inkscape:window-width="2560"
     inkscape:window-height="1369"
     inkscape:window-x="1912"
     inkscape:window-y="-8"
     inkscape:window-maximized="1"
     inkscape:current-layer="layer1" /><defs
     id="defs2"><linearGradient
       inkscape:collect="always"
       id="linearGradient31147"><stop
         style="stop-color:#e3a1c8;stop-opacity:1;"
         offset="0"
         id="stop31143" /><stop
         style="stop-color:#ffdbea;stop-opacity:1;"
         offset="1"
         id="stop31145" /></linearGradient><linearGradient
       inkscape:collect="always"
       xlink:href="#linearGradient31147"
       id="linearGradient31149"
       x1="69.744064"
       y1="94.071358"
       x2="69.744064"
       y2="93.924309"
       gradientUnits="userSpaceOnUse" /><linearGradient
       inkscape:collect="always"
       xlink:href="#linearGradient31147"
       id="linearGradient9451"
       gradientUnits="userSpaceOnUse"
       x1="69.744064"
       y1="94.071358"
       x2="69.744064"
       y2="93.924309" /><linearGradient
       inkscape:collect="always"
       xlink:href="#linearGradient31147"
       id="linearGradient9453"
       gradientUnits="userSpaceOnUse"
       x1="69.744064"
       y1="94.071358"
       x2="69.744064"
       y2="93.924309" /><linearGradient
       inkscape:collect="always"
       xlink:href="#linearGradient31147"
       id="linearGradient9455"
       gradientUnits="userSpaceOnUse"
       x1="69.744064"
       y1="94.071358"
       x2="69.744064"
       y2="93.924309" /><linearGradient
       inkscape:collect="always"
       xlink:href="#linearGradient31147"
       id="linearGradient9457"
       gradientUnits="userSpaceOnUse"
       x1="69.744064"
       y1="94.071358"
       x2="69.744064"
       y2="93.924309" /><linearGradient
       inkscape:collect="always"
       xlink:href="#linearGradient31147"
       id="linearGradient9459"
       gradientUnits="userSpaceOnUse"
       x1="69.744064"
       y1="94.071358"
       x2="69.744064"
       y2="93.924309" /><linearGradient
       inkscape:collect="always"
       xlink:href="#linearGradient31147"
       id="linearGradient9461"
       gradientUnits="userSpaceOnUse"
       x1="69.744064"
       y1="94.071358"
       x2="69.744064"
       y2="93.924309" /><linearGradient
       inkscape:collect="always"
       xlink:href="#linearGradient31147"
       id="linearGradient9463"
       gradientUnits="userSpaceOnUse"
       x1="69.744064"
       y1="94.071358"
       x2="69.744064"
       y2="93.924309" /></defs><g
     inkscape:label="Layer 1"
     inkscape:groupmode="layer"
     id="layer1"
     transform="translate(-32.046161,-81.867861)"><g
       aria-label="The Name"
       id="text236"
       style="font-weight:bold;font-size:21.2699px;line-height:1.25;font-family:Bedstead;-inkscape-font-specification:'Bedstead, Bold';fill:#7d1f16;stroke:#ffffff;stroke-width:4"><path
         d="m 34.046161,85.994851 h 4.25398 V 98.75679 h 3.190485 V 85.994851 h 4.25398 v -2.12699 H 34.046161 Z"
         id="path9436" /><path
         d="M 46.808109,83.867861 V 98.75679 h 3.190485 v -8.50796 h 3.807312 l 1.510162,1.510163 v 6.997797 h 3.190485 V 90.865657 L 55.762736,88.12184 h -5.764142 v -4.253979 z"
         id="path9438" /><path
         d="m 59.570056,90.865657 v 5.147316 l 2.743817,2.743817 h 6.827638 V 96.6298 H 64.270704 L 62.760541,95.119637 V 94.50281 h 8.50796 V 90.865657 L 68.524684,88.12184 h -6.210811 z m 4.700648,-0.616827 h 2.297149 l 1.510163,1.510163 v 0.616827 h -5.317475 v -0.616827 z"
         id="path9440" /><path
         d="M 85.093952,83.867861 V 98.75679 h 3.190484 v -8.061292 l 3.807312,3.807312 h 1.510163 v 4.25398 h 3.190485 V 83.867861 h -3.190485 v 8.061291 L 89.794599,88.12184 h -1.510163 v -4.253979 z"
         id="path9442" /><path
         d="m 97.855899,96.012973 2.743821,2.743817 h 8.95462 v -7.891133 l -2.74381,-2.743817 h -6.827641 v 2.12699 h 4.870811 l 1.51016,1.510163 v 0.616827 h -5.76414 l -2.743821,2.743817 z m 4.700651,0.616827 -1.0635,-1.063495 1.0635,-1.063495 h 3.80731 v 2.12699 z"
         id="path9444" /><path
         d="m 110.61785,88.12184 v 10.63495 h 3.19048 v -8.061292 l 1.0635,1.063495 v 6.997797 h 3.19048 v -6.997797 l 0.53175,-0.531747 0.53175,0.531747 v 6.997797 h 3.19048 v -7.891133 l -2.74382,-2.743817 h -1.95683 l -1.14857,1.148575 -1.14858,-1.148575 z"
         id="path9446" /><path
         d="m 123.37979,90.865657 v 5.147316 l 2.74382,2.743817 h 6.82764 V 96.6298 h -4.87081 l -1.51016,-1.510163 V 94.50281 h 8.50796 v -3.637153 l -2.74382,-2.743817 h -6.21081 z m 4.70065,-0.616827 h 2.29715 l 1.51016,1.510163 v 0.616827 h -5.31747 v -0.616827 z"
         id="path9448" /></g><g
       aria-label="The Name"
       id="text964"
       style="font-weight:bold;font-size:21.2699px;line-height:1.25;font-family:Bedstead;-inkscape-font-specification:'Bedstead, Bold';fill:#2d1427;stroke:#2d1427;stroke-width:3"><path
         d="m 34.046161,85.994851 h 4.25398 V 98.75679 h 3.190485 V 85.994851 h 4.25398 v -2.12699 H 34.046161 Z"
         id="path9421" /><path
         d="M 46.808109,83.867861 V 98.75679 h 3.190485 v -8.50796 h 3.807312 l 1.510162,1.510163 v 6.997797 h 3.190485 V 90.865657 L 55.762736,88.12184 h -5.764142 v -4.253979 z"
         id="path9423" /><path
         d="m 59.570056,90.865657 v 5.147316 l 2.743817,2.743817 h 6.827638 V 96.6298 H 64.270704 L 62.760541,95.119637 V 94.50281 h 8.50796 V 90.865657 L 68.524684,88.12184 h -6.210811 z m 4.700648,-0.616827 h 2.297149 l 1.510163,1.510163 v 0.616827 h -5.317475 v -0.616827 z"
         id="path9425" /><path
         d="M 85.093952,83.867861 V 98.75679 h 3.190484 v -8.061292 l 3.807312,3.807312 h 1.510163 v 4.25398 h 3.190485 V 83.867861 h -3.190485 v 8.061291 L 89.794599,88.12184 h -1.510163 v -4.253979 z"
         id="path9427" /><path
         d="m 97.855899,96.012973 2.743821,2.743817 h 8.95462 v -7.891133 l -2.74381,-2.743817 h -6.827641 v 2.12699 h 4.870811 l 1.51016,1.510163 v 0.616827 h -5.76414 l -2.743821,2.743817 z m 4.700651,0.616827 -1.0635,-1.063495 1.0635,-1.063495 h 3.80731 v 2.12699 z"
         id="path9429" /><path
         d="m 110.61785,88.12184 v 10.63495 h 3.19048 v -8.061292 l 1.0635,1.063495 v 6.997797 h 3.19048 v -6.997797 l 0.53175,-0.531747 0.53175,0.531747 v 6.997797 h 3.19048 v -7.891133 l -2.74382,-2.743817 h -1.95683 l -1.14857,1.148575 -1.14858,-1.148575 z"
         id="path9431" /><path
         d="m 123.37979,90.865657 v 5.147316 l 2.74382,2.743817 h 6.82764 V 96.6298 h -4.87081 l -1.51016,-1.510163 V 94.50281 h 8.50796 v -3.637153 l -2.74382,-2.743817 h -6.21081 z m 4.70065,-0.616827 h 2.29715 l 1.51016,1.510163 v 0.616827 h -5.31747 v -0.616827 z"
         id="path9433" /></g><g
       aria-label="The Name"
       id="text5984"
       style="font-weight:bold;font-size:21.2699px;line-height:1.25;font-family:Bedstead;-inkscape-font-specification:'Bedstead, Bold';fill:url(#linearGradient31149);stroke:#fcc2ff;stroke-width:0"><path
         d="m 34.046161,85.129044 h 4.25398 v 12.76194 h 3.190485 v -12.76194 h 4.25398 v -2.12699 H 34.046161 Z"
         id="path9406"
         style="fill:url(#linearGradient9451)" /><path
         d="m 46.808109,83.002054 v 14.88893 h 3.190485 v -8.50796 h 3.807312 l 1.510162,1.510163 v 6.997797 h 3.190485 v -7.891133 l -2.743817,-2.743817 h -5.764142 v -4.25398 z"
         id="path9408"
         style="fill:url(#linearGradient9453)" /><path
         d="m 59.570056,89.999851 v 5.147316 l 2.743817,2.743817 h 6.827638 v -2.12699 h -4.870807 l -1.510163,-1.510163 v -0.616827 h 8.50796 v -3.637153 l -2.743817,-2.743817 h -6.210811 z m 4.700648,-0.616827 h 2.297149 l 1.510163,1.510163 v 0.616827 h -5.317475 v -0.616827 z"
         id="path9410"
         style="fill:url(#linearGradient9455)" /><path
         d="m 85.093952,83.002054 v 14.88893 h 3.190484 v -8.061292 l 3.807312,3.807312 h 1.510163 v 4.25398 h 3.190485 v -14.88893 h -3.190485 v 8.061292 l -3.807312,-3.807312 h -1.510163 v -4.25398 z"
         id="path9412"
         style="fill:url(#linearGradient9457)" /><path
         d="m 97.855899,95.147167 2.743821,2.743817 h 8.95462 v -7.891133 l -2.74381,-2.743817 h -6.827641 v 2.12699 h 4.870811 l 1.51016,1.510163 v 0.616827 h -5.76414 l -2.743821,2.743817 z m 4.700651,0.616827 -1.0635,-1.063495 1.0635,-1.063495 h 3.80731 v 2.12699 z"
         id="path9414"
         style="fill:url(#linearGradient9459)" /><path
         d="m 110.61785,87.256034 v 10.63495 h 3.19048 v -8.061292 l 1.0635,1.063495 v 6.997797 h 3.19048 v -6.997797 l 0.53175,-0.531748 0.53175,0.531748 v 6.997797 h 3.19048 v -7.891133 l -2.74382,-2.743817 h -1.95683 l -1.14857,1.148574 -1.14858,-1.148574 z"
         id="path9416"
         style="fill:url(#linearGradient9461)" /><path
         d="m 123.37979,89.999851 v 5.147316 l 2.74382,2.743817 h 6.82764 v -2.12699 h -4.87081 l -1.51016,-1.510163 v -0.616827 h 8.50796 v -3.637153 l -2.74382,-2.743817 h -6.21081 z m 4.70065,-0.616827 h 2.29715 l 1.51016,1.510163 v 0.616827 h -5.31747 v -0.616827 z"
         id="path9418"
         style="fill:url(#linearGradient9463)" /></g></g></svg>
