<?xml version="1.0" standalone="no"?>
<!DOCTYPE svg PUBLIC "-//W3C//DTD SVG 20010904//EN"
 "http://www.w3.org/TR/2001/REC-SVG-20010904/DTD/svg10.dtd">
<svg version="1.0" xmlns="http://www.w3.org/2000/svg"
 width="1024.000000pt" height="1024.000000pt" viewBox="0 0 1024.000000 1024.000000"
 preserveAspectRatio="xMidYMid meet">
<metadata>
Created by potrace 1.11, written by Peter Selinger 2001-2013
</metadata>
<g transform="translate(0.000000,1024.000000) scale(0.100000,-0.100000)"
fill="#000000" stroke="none">
<path d="M0 5120 l0 -5120 5120 0 5120 0 0 5120 0 5120 -5120 0 -5120 0 0
-5120z m5455 4415 c77 -21 185 -76 254 -129 114 -86 220 -249 258 -396 23 -88
22 -263 -1 -350 -68 -255 -271 -458 -526 -526 -87 -23 -262 -24 -350 -1 -149
39 -311 145 -398 261 -60 79 -118 206 -137 298 -78 391 174 772 565 854 81 17
252 11 335 -11z m-1725 -2465 c679 -529 1243 -970 1252 -979 17 -15 3 -27
-230 -202 l-247 -186 -887 466 c-487 256 -889 468 -892 471 -2 3 -59 314 -126
690 -67 377 -124 694 -127 705 -5 16 -3 18 8 9 8 -6 570 -444 1249 -974z
m4270 948 c0 -7 -50 -288 -111 -623 l-112 -611 -1319 -708 c-725 -389 -1326
-710 -1336 -712 -19 -5 -327 169 -327 184 0 10 3183 2479 3198 2481 4 1 7 -5
7 -11z m-3290 -1074 l536 -156 509 147 c281 81 523 151 540 156 25 7 27 7 15
-5 -8 -7 -244 -192 -525 -411 -280 -219 -518 -405 -527 -413 -15 -13 -68 26
-540 394 -616 480 -589 459 -563 451 11 -3 261 -76 555 -163z m-1522 -859
c898 -477 1629 -871 1625 -875 -4 -5 -180 -99 -390 -211 -210 -111 -384 -207
-386 -213 -2 -6 -226 -842 -498 -1858 -272 -1016 -497 -1844 -500 -1840 -3 4
-360 1332 -794 2952 -433 1620 -790 2951 -793 2959 -3 9 15 3 49 -16 30 -17
789 -421 1687 -898z m5589 873 c-7 -24 -389 -1446 -848 -3160 l-834 -3118
-1938 0 c-1841 0 -1938 1 -1933 18 3 9 240 892 526 1962 287 1070 524 1946
528 1948 4 2 1015 540 2247 1197 1232 656 2245 1193 2252 1194 9 1 9 -9 0 -41z"/>
</g>
</svg>
