<?xml version="1.0" encoding="UTF-8"?>
<!-- Created with Inkscape (http://www.inkscape.org/) -->
<svg width="156.1mm" height="137.4mm" version="1.1" viewBox="0 0 156.1 137.4" xml:space="preserve" xmlns="http://www.w3.org/2000/svg"><g transform="translate(-29.08 -83.36)"><path d="m75.19 220.6c-6.213-1.187-12.29-4.893-19.03-11.61-3.911-3.896-5.989-6.605-7.69-10.02-1.627-3.269-2.292-5.897-2.278-8.994 0.02091-4.64 1.795-8.495 5.597-12.16 4.778-4.608 11.89-7.854 22.29-10.17 1.186-0.2639 1.277-0.3036 0.5522-0.2408-4.499 0.3893-5.582 0.4339-8.362 0.3445-5.029-0.1618-8.479-0.7238-12.78-2.082-11.1-3.506-18.78-12.21-20.59-23.32-1.129-6.926-3.167-29.37-3.786-41.68-0.2642-5.256 0.8178-10.27 2.823-13.08 3.834-5.374 11.63-5.607 21.77-0.6528 8.021 3.919 16.03 10.55 25.83 21.38 9.651 10.67 20.5 26.02 26.51 37.51 0.5557 1.062 1.046 1.931 1.089 1.93 0.0434-6e-4 0.5329-0.8699 1.088-1.932 7.929-15.17 22.77-34.8 34.89-46.16 6.557-6.144 11.4-9.686 17.2-12.58 5.025-2.51 9.22-3.698 13.06-3.699 5.838-0.0023 9.578 3.049 11.06 9.025 0.7485 3.013 0.8908 5.733 0.5719 10.93-0.7006 11.43-2.064 26.94-3.092 35.19-0.7219 5.79-1.43 8.491-3.146 11.99-3.593 7.335-9.566 12.34-18.07 15.15-6.052 1.998-12.61 2.537-20.98 1.726-0.4339-0.042 0.3826 0.2002 1.814 0.5383 10.03 2.368 16.95 5.722 21.5 10.41 3.438 3.547 5.047 7.244 5.057 11.62 7e-3 3.011-0.7131 5.86-2.264 8.963-1.732 3.466-3.792 6.152-7.709 10.05-6.235 6.211-11.82 9.793-17.61 11.3-1.598 0.4153-1.954 0.4503-4.497 0.4428-2.483-7e-3 -2.92-0.0508-4.339-0.4318-2.006-0.5385-4.945-1.995-6.706-3.322-4.206-3.172-7.979-8.14-11.42-15.04-1.909-3.83-3.401-7.513-5.517-13.63-0.405-1.17-0.7668-1.972-0.889-1.972-0.1162 0-0.4132 0.5848-0.6811 1.341-2.804 7.919-3.778 10.33-5.788 14.35-4.367 8.721-9.038 14.13-14.6 16.9-2.681 1.336-4.379 1.753-7.416 1.823-1.541 0.0353-2.752-0.0194-3.471-0.1568z"/></g></svg>
