<?xml version="1.0" encoding="UTF-8"?>
<!-- Created with Inkscape (http://www.inkscape.org/) -->
<svg width="164.16mm" height="30.169mm" version="1.1" viewBox="0 0 164.16 30.169" xml:space="preserve" xmlns="http://www.w3.org/2000/svg" xmlns:xlink="http://www.w3.org/1999/xlink"><defs><linearGradient id="linearGradient31147"><stop stop-color="#e3a1c8" offset="0"/><stop stop-color="#ffdbea" offset="1"/></linearGradient><linearGradient id="linearGradient31149" x1="69.744" x2="69.744" y1="94.071" y2="93.924" gradientUnits="userSpaceOnUse" xlink:href="#linearGradient31147"/><linearGradient id="linearGradient46231" x1="84.731" x2="84.731" y1="108.27" y2="108.26" gradientTransform="matrix(.8904 0 0 1.1231 -1.3371e-6 9.2585e-7)" gradientUnits="userSpaceOnUse" xlink:href="#linearGradient31147"/></defs><g transform="translate(-6.5778 -9.9688)"><g transform="translate(-25.468 -71.899)" fill="#7d1f16" stroke="#fff" stroke-width="4" aria-label="sub.ROZEA"><path d="m34.046 91.759 2.7438 2.7438h4.254l1.0635 1.0635-1.0635 1.0635h-6.9978v2.127h8.9546l2.7438-2.7438v-0.89334l-2.7438-2.7438h-4.254l-1.0635-1.0635 1.0635-1.0635h6.9978v-2.127h-8.9546l-2.7438 2.7438z"/><path d="m46.808 88.122v7.8911l2.7438 2.7438h8.9546v-10.635h-3.1905v8.508h-3.8073l-1.5102-1.5102v-6.9978z"/><path d="m59.57 83.868v14.889h8.9546l2.7438-2.7438v-5.1473l-2.7438-2.7438h-5.7641v-4.254zm3.1905 6.381h3.8073l1.5102 1.5102v3.3606l-1.5102 1.5102h-3.8073z"/><path d="m76.586 98.757h3.1905v-2.127h-3.1905z"/><path d="m85.094 83.868v14.889h3.1905v-6.381h1.0635v1.5102l4.8708 4.8708h2.5737v-1.5102l-4.254-4.254v-0.61683h1.5102l2.7438-2.7438v-3.0203l-2.7438-2.7438zm3.1905 2.127h3.8073l1.5102 1.5102v1.2337l-1.5102 1.5102h-3.8073z"/><path d="m97.856 86.612v9.4013l2.7438 2.7438h6.2108l2.7438-2.7438v-9.4013l-2.7438-2.7438h-6.2108zm4.7007-0.61683h2.2972l1.5102 1.5102v7.6146l-1.5102 1.5102h-2.2972l-1.5102-1.5102v-7.6146z"/><path d="m110.62 85.995h8.508v0.61683l-8.508 8.508v3.6372h11.698v-2.127h-8.508v-0.61683l8.508-8.508v-3.6372h-11.698z"/><path d="m123.38 83.868v14.889h11.698v-2.127h-8.508v-4.254h6.381v-2.127h-6.381v-4.254h8.508v-2.127z"/><path d="m136.14 88.739v10.018h3.1905v-4.254h5.3175v4.254h3.1905v-10.018l-4.8708-4.8708h-1.9568zm3.1905 0.89334 2.6587-2.6587 2.6587 2.6587v2.7438h-5.3175z"/></g><g transform="translate(-25.468 -71.899)" fill="#2d1427" stroke="#2d1427" stroke-width="3" aria-label="sub.ROZEA"><path d="m34.046 91.759 2.7438 2.7438h4.254l1.0635 1.0635-1.0635 1.0635h-6.9978v2.127h8.9546l2.7438-2.7438v-0.89334l-2.7438-2.7438h-4.254l-1.0635-1.0635 1.0635-1.0635h6.9978v-2.127h-8.9546l-2.7438 2.7438z"/><path d="m46.808 88.122v7.8911l2.7438 2.7438h8.9546v-10.635h-3.1905v8.508h-3.8073l-1.5102-1.5102v-6.9978z"/><path d="m59.57 83.868v14.889h8.9546l2.7438-2.7438v-5.1473l-2.7438-2.7438h-5.7641v-4.254zm3.1905 6.381h3.8073l1.5102 1.5102v3.3606l-1.5102 1.5102h-3.8073z"/><path d="m76.586 98.757h3.1905v-2.127h-3.1905z"/><path d="m85.094 83.868v14.889h3.1905v-6.381h1.0635v1.5102l4.8708 4.8708h2.5737v-1.5102l-4.254-4.254v-0.61683h1.5102l2.7438-2.7438v-3.0203l-2.7438-2.7438zm3.1905 2.127h3.8073l1.5102 1.5102v1.2337l-1.5102 1.5102h-3.8073z"/><path d="m97.856 86.612v9.4013l2.7438 2.7438h6.2108l2.7438-2.7438v-9.4013l-2.7438-2.7438h-6.2108zm4.7007-0.61683h2.2972l1.5102 1.5102v7.6146l-1.5102 1.5102h-2.2972l-1.5102-1.5102v-7.6146z"/><path d="m110.62 85.995h8.508v0.61683l-8.508 8.508v3.6372h11.698v-2.127h-8.508v-0.61683l8.508-8.508v-3.6372h-11.698z"/><path d="m123.38 83.868v14.889h11.698v-2.127h-8.508v-4.254h6.381v-2.127h-6.381v-4.254h8.508v-2.127z"/><path d="m136.14 88.739v10.018h3.1905v-4.254h5.3175v4.254h3.1905v-10.018l-4.8708-4.8708h-1.9568zm3.1905 0.89334 2.6587-2.6587 2.6587 2.6587v2.7438h-5.3175z"/></g><g transform="translate(-25.468 -71.899)" fill="url(#linearGradient31149)" stroke="#fcc2ff" stroke-width="0" aria-label="sub.ROZEA"><path d="m34.046 90.893 2.7438 2.7438h4.254l1.0635 1.0635-1.0635 1.0635h-6.9978v2.127h8.9546l2.7438-2.7438v-0.89334l-2.7438-2.7438h-4.254l-1.0635-1.0635 1.0635-1.0635h6.9978v-2.127h-8.9546l-2.7438 2.7438z"/><path d="m46.808 87.256v7.8911l2.7438 2.7438h8.9546v-10.635h-3.1905v8.508h-3.8073l-1.5102-1.5102v-6.9978z"/><path d="m59.57 83.002v14.889h8.9546l2.7438-2.7438v-5.1473l-2.7438-2.7438h-5.7641v-4.254zm3.1905 6.381h3.8073l1.5102 1.5102v3.3606l-1.5102 1.5102h-3.8073z"/><path d="m76.586 97.891h3.1905v-2.127h-3.1905z"/><path d="m85.094 83.002v14.889h3.1905v-6.381h1.0635v1.5102l4.8708 4.8708h2.5737v-1.5102l-4.254-4.254v-0.61683h1.5102l2.7438-2.7438v-3.0203l-2.7438-2.7438zm3.1905 2.127h3.8073l1.5102 1.5102v1.2337l-1.5102 1.5102h-3.8073z"/><path d="m97.856 85.746v9.4013l2.7438 2.7438h6.2108l2.7438-2.7438v-9.4013l-2.7438-2.7438h-6.2108zm4.7007-0.61683h2.2972l1.5102 1.5102v7.6146l-1.5102 1.5102h-2.2972l-1.5102-1.5102v-7.6146z"/><path d="m110.62 85.129h8.508v0.61683l-8.508 8.508v3.6372h11.698v-2.127h-8.508v-0.61683l8.508-8.508v-3.6372h-11.698z"/><path d="m123.38 83.002v14.889h11.698v-2.127h-8.508v-4.254h6.381v-2.127h-6.381v-4.254h8.508v-2.127z"/><path d="m136.14 87.873v10.018h3.1905v-4.254h5.3175v4.254h3.1905v-10.018l-4.8708-4.8708h-1.9568zm3.1905 0.89334 2.6587-2.6587 2.6587 2.6587v2.7438h-5.3175z"/></g><g transform="matrix(1.1231 0 0 .8904 -25.468 -71.899)" fill="#7d1f16" stroke="#fff" stroke-width="4" aria-label="LA ANDROIDA KAPRINO"><path d="m68.647 117.41v6.4176h5.0424v-0.9168h-3.6672v-5.5008z"/><path d="m74.148 119.51v4.3181h1.3752v-1.8336h2.292v1.8336h1.3752v-4.3181l-2.0995-2.0995h-0.84345zm1.3752 0.38505 1.146-1.146 1.146 1.146v1.1827h-2.292z"/><path d="m85.149 119.51v4.3181h1.3752v-1.8336h2.292v1.8336h1.3752v-4.3181l-2.0995-2.0995h-0.84345zm1.3752 0.38505 1.146-1.146 1.146 1.146v1.1827h-2.292z"/><path d="m90.65 117.41v6.4176h1.3752v-3.4747l1.6411 1.6411h0.65093v1.8336h1.3752v-6.4176h-1.3752v3.4747l-1.6411-1.6411h-0.65093v-1.8336z"/><path d="m96.151 117.41v6.4176h3.8597l1.1827-1.1827v-4.0522l-1.1827-1.1827zm1.3752 0.9168h1.6411l0.65092 0.65093v3.2821l-0.65092 0.65092h-1.6411z"/><path d="m101.65 117.41v6.4176h1.3752v-2.7504h0.4584v0.65093l2.0995 2.0995h1.1093v-0.65092l-1.8336-1.8336v-0.26587h0.65092l1.1827-1.1827v-1.3018l-1.1827-1.1827zm1.3752 0.9168h1.6411l0.65092 0.65093v0.53174l-0.65092 0.65092h-1.6411z"/><path d="m107.15 118.59v4.0522l1.1827 1.1827h2.677l1.1827-1.1827v-4.0522l-1.1827-1.1827h-2.677zm2.0261-0.26587h0.99014l0.65093 0.65093v3.2821l-0.65093 0.65092h-0.99014l-0.65092-0.65092v-3.2821z"/><path d="m113.57 118.33h0.91679v4.584h-0.91679v0.9168h3.2088v-0.9168h-0.91679v-4.584h0.91679v-0.9168h-3.2088z"/><path d="m118.15 117.41v6.4176h3.8597l1.1827-1.1827v-4.0522l-1.1827-1.1827zm1.3752 0.9168h1.6411l0.65092 0.65093v3.2821l-0.65092 0.65092h-1.6411z"/><path d="m123.65 119.51v4.3181h1.3752v-1.8336h2.292v1.8336h1.3752v-4.3181l-2.0995-2.0995h-0.84346zm1.3752 0.38505 1.146-1.146 1.146 1.146v1.1827h-2.292z"/><path d="m134.66 117.41v6.4176h1.3752v-2.5579l2.5579 2.5579h1.1093v-0.65092l-2.5579-2.5579 2.5579-2.5579v-0.65093h-1.1093l-2.5579 2.5579v-2.5579z"/><path d="m140.16 119.51v4.3181h1.3752v-1.8336h2.292v1.8336h1.3752v-4.3181l-2.0995-2.0995h-0.84345zm1.3752 0.38505 1.146-1.146 1.146 1.146v1.1827h-2.292z"/><path d="m145.66 117.41v6.4176h1.3752v-2.7504h2.4845l1.1827-1.1827v-1.3018l-1.1827-1.1827zm1.3752 0.9168h1.6411l0.65093 0.65093v0.53174l-0.65093 0.65092h-1.6411z"/><path d="m151.16 117.41v6.4176h1.3752v-2.7504h0.4584v0.65093l2.0995 2.0995h1.1093v-0.65092l-1.8336-1.8336v-0.26587h0.65093l1.1827-1.1827v-1.3018l-1.1827-1.1827zm1.3752 0.9168h1.6411l0.65092 0.65093v0.53174l-0.65092 0.65092h-1.6411z"/><path d="m157.58 118.33h0.91679v4.584h-0.91679v0.9168h3.2088v-0.9168h-0.9168v-4.584h0.9168v-0.9168h-3.2088z"/><path d="m162.16 117.41v6.4176h1.3752v-3.4747l1.6411 1.6411h0.65092v1.8336h1.3752v-6.4176h-1.3752v3.4747l-1.6411-1.6411h-0.65093v-1.8336z"/><path d="m167.66 118.59v4.0522l1.1827 1.1827h2.677l1.1827-1.1827v-4.0522l-1.1827-1.1827h-2.677zm2.0261-0.26587h0.99014l0.65093 0.65093v3.2821l-0.65093 0.65092h-0.99014l-0.65092-0.65092v-3.2821z"/></g><g transform="matrix(1.1231 0 0 .8904 -25.468 -71.899)" fill="#2d1427" stroke="#2d1427" stroke-width="3" aria-label="LA ANDROIDA KAPRINO"><path d="m68.647 117.41v6.4176h5.0424v-0.9168h-3.6672v-5.5008z"/><path d="m74.148 119.51v4.3181h1.3752v-1.8336h2.292v1.8336h1.3752v-4.3181l-2.0995-2.0995h-0.84345zm1.3752 0.38505 1.146-1.146 1.146 1.146v1.1827h-2.292z"/><path d="m85.149 119.51v4.3181h1.3752v-1.8336h2.292v1.8336h1.3752v-4.3181l-2.0995-2.0995h-0.84345zm1.3752 0.38505 1.146-1.146 1.146 1.146v1.1827h-2.292z"/><path d="m90.65 117.41v6.4176h1.3752v-3.4747l1.6411 1.6411h0.65093v1.8336h1.3752v-6.4176h-1.3752v3.4747l-1.6411-1.6411h-0.65093v-1.8336z"/><path d="m96.151 117.41v6.4176h3.8597l1.1827-1.1827v-4.0522l-1.1827-1.1827zm1.3752 0.9168h1.6411l0.65092 0.65093v3.2821l-0.65092 0.65092h-1.6411z"/><path d="m101.65 117.41v6.4176h1.3752v-2.7504h0.4584v0.65093l2.0995 2.0995h1.1093v-0.65092l-1.8336-1.8336v-0.26587h0.65092l1.1827-1.1827v-1.3018l-1.1827-1.1827zm1.3752 0.9168h1.6411l0.65092 0.65093v0.53174l-0.65092 0.65092h-1.6411z"/><path d="m107.15 118.59v4.0522l1.1827 1.1827h2.677l1.1827-1.1827v-4.0522l-1.1827-1.1827h-2.677zm2.0261-0.26587h0.99014l0.65093 0.65093v3.2821l-0.65093 0.65092h-0.99014l-0.65092-0.65092v-3.2821z"/><path d="m113.57 118.33h0.91679v4.584h-0.91679v0.9168h3.2088v-0.9168h-0.91679v-4.584h0.91679v-0.9168h-3.2088z"/><path d="m118.15 117.41v6.4176h3.8597l1.1827-1.1827v-4.0522l-1.1827-1.1827zm1.3752 0.9168h1.6411l0.65092 0.65093v3.2821l-0.65092 0.65092h-1.6411z"/><path d="m123.65 119.51v4.3181h1.3752v-1.8336h2.292v1.8336h1.3752v-4.3181l-2.0995-2.0995h-0.84346zm1.3752 0.38505 1.146-1.146 1.146 1.146v1.1827h-2.292z"/><path d="m134.66 117.41v6.4176h1.3752v-2.5579l2.5579 2.5579h1.1093v-0.65092l-2.5579-2.5579 2.5579-2.5579v-0.65093h-1.1093l-2.5579 2.5579v-2.5579z"/><path d="m140.16 119.51v4.3181h1.3752v-1.8336h2.292v1.8336h1.3752v-4.3181l-2.0995-2.0995h-0.84345zm1.3752 0.38505 1.146-1.146 1.146 1.146v1.1827h-2.292z"/><path d="m145.66 117.41v6.4176h1.3752v-2.7504h2.4845l1.1827-1.1827v-1.3018l-1.1827-1.1827zm1.3752 0.9168h1.6411l0.65093 0.65093v0.53174l-0.65093 0.65092h-1.6411z"/><path d="m151.16 117.41v6.4176h1.3752v-2.7504h0.4584v0.65093l2.0995 2.0995h1.1093v-0.65092l-1.8336-1.8336v-0.26587h0.65093l1.1827-1.1827v-1.3018l-1.1827-1.1827zm1.3752 0.9168h1.6411l0.65092 0.65093v0.53174l-0.65092 0.65092h-1.6411z"/><path d="m157.58 118.33h0.91679v4.584h-0.91679v0.9168h3.2088v-0.9168h-0.9168v-4.584h0.9168v-0.9168h-3.2088z"/><path d="m162.16 117.41v6.4176h1.3752v-3.4747l1.6411 1.6411h0.65092v1.8336h1.3752v-6.4176h-1.3752v3.4747l-1.6411-1.6411h-0.65093v-1.8336z"/><path d="m167.66 118.59v4.0522l1.1827 1.1827h2.677l1.1827-1.1827v-4.0522l-1.1827-1.1827h-2.677zm2.0261-0.26587h0.99014l0.65093 0.65093v3.2821l-0.65093 0.65092h-0.99014l-0.65092-0.65092v-3.2821z"/></g><g transform="matrix(1.1231 0 0 .8904 -25.468 -71.899)" fill="url(#linearGradient46231)" stroke="#fcc2ff" stroke-width="0" aria-label="LA ANDROIDA KAPRINO"><path d="m68.647 117.04v6.4176h5.0424v-0.9168h-3.6672v-5.5008z"/><path d="m74.148 119.14v4.3181h1.3752v-1.8336h2.292v1.8336h1.3752v-4.3181l-2.0995-2.0995h-0.84345zm1.3752 0.38505 1.146-1.146 1.146 1.146v1.1827h-2.292z"/><path d="m85.149 119.14v4.3181h1.3752v-1.8336h2.292v1.8336h1.3752v-4.3181l-2.0995-2.0995h-0.84345zm1.3752 0.38505 1.146-1.146 1.146 1.146v1.1827h-2.292z"/><path d="m90.65 117.04v6.4176h1.3752v-3.4747l1.6411 1.6411h0.65093v1.8336h1.3752v-6.4176h-1.3752v3.4747l-1.6411-1.6411h-0.65093v-1.8336z"/><path d="m96.151 117.04v6.4176h3.8597l1.1827-1.1827v-4.0522l-1.1827-1.1827zm1.3752 0.9168h1.6411l0.65092 0.65092v3.2821l-0.65092 0.65092h-1.6411z"/><path d="m101.65 117.04v6.4176h1.3752v-2.7504h0.4584v0.65092l2.0995 2.0995h1.1093v-0.65093l-1.8336-1.8336v-0.26587h0.65092l1.1827-1.1827v-1.3018l-1.1827-1.1827zm1.3752 0.9168h1.6411l0.65092 0.65092v0.53175l-0.65092 0.65092h-1.6411z"/><path d="m107.15 118.22v4.0522l1.1827 1.1827h2.677l1.1827-1.1827v-4.0522l-1.1827-1.1827h-2.677zm2.0261-0.26587h0.99014l0.65093 0.65092v3.2821l-0.65093 0.65092h-0.99014l-0.65092-0.65092v-3.2821z"/><path d="m113.57 117.95h0.91679v4.584h-0.91679v0.9168h3.2088v-0.9168h-0.91679v-4.584h0.91679v-0.9168h-3.2088z"/><path d="m118.15 117.04v6.4176h3.8597l1.1827-1.1827v-4.0522l-1.1827-1.1827zm1.3752 0.9168h1.6411l0.65092 0.65092v3.2821l-0.65092 0.65092h-1.6411z"/><path d="m123.65 119.14v4.3181h1.3752v-1.8336h2.292v1.8336h1.3752v-4.3181l-2.0995-2.0995h-0.84346zm1.3752 0.38505 1.146-1.146 1.146 1.146v1.1827h-2.292z"/><path d="m134.66 117.04v6.4176h1.3752v-2.5579l2.5579 2.5579h1.1093v-0.65093l-2.5579-2.5579 2.5579-2.5579v-0.65093h-1.1093l-2.5579 2.5579v-2.5579z"/><path d="m140.16 119.14v4.3181h1.3752v-1.8336h2.292v1.8336h1.3752v-4.3181l-2.0995-2.0995h-0.84345zm1.3752 0.38505 1.146-1.146 1.146 1.146v1.1827h-2.292z"/><path d="m145.66 117.04v6.4176h1.3752v-2.7504h2.4845l1.1827-1.1827v-1.3018l-1.1827-1.1827zm1.3752 0.9168h1.6411l0.65093 0.65092v0.53175l-0.65093 0.65092h-1.6411z"/><path d="m151.16 117.04v6.4176h1.3752v-2.7504h0.4584v0.65092l2.0995 2.0995h1.1093v-0.65093l-1.8336-1.8336v-0.26587h0.65093l1.1827-1.1827v-1.3018l-1.1827-1.1827zm1.3752 0.9168h1.6411l0.65092 0.65092v0.53175l-0.65092 0.65092h-1.6411z"/><path d="m157.58 117.95h0.91679v4.584h-0.91679v0.9168h3.2088v-0.9168h-0.9168v-4.584h0.9168v-0.9168h-3.2088z"/><path d="m162.16 117.04v6.4176h1.3752v-3.4747l1.6411 1.6411h0.65092v1.8336h1.3752v-6.4176h-1.3752v3.4747l-1.6411-1.6411h-0.65093v-1.8336z"/><path d="m167.66 118.22v4.0522l1.1827 1.1827h2.677l1.1827-1.1827v-4.0522l-1.1827-1.1827h-2.677zm2.0261-0.26587h0.99014l0.65093 0.65092v3.2821l-0.65093 0.65092h-0.99014l-0.65092-0.65092v-3.2821z"/></g></g></svg>
