<?xml version="1.0" standalone="no"?>
<!DOCTYPE svg PUBLIC "-//W3C//DTD SVG 20010904//EN"
 "http://www.w3.org/TR/2001/REC-SVG-20010904/DTD/svg10.dtd">
<svg version="1.0" xmlns="http://www.w3.org/2000/svg"
 width="565.000000pt" height="565.000000pt" viewBox="0 0 565.000000 565.000000"
 preserveAspectRatio="xMidYMid meet">
<metadata>
Created by potrace 1.14, written by Peter Selinger 2001-2017
</metadata>
<g transform="translate(0.000000,565.000000) scale(0.100000,-0.100000)"
fill="#000000" stroke="none">
<path d="M0 2825 l0 -2825 2825 0 2825 0 0 2825 0 2825 -2825 0 -2825 0 0
-2825z m3023 2145 c205 -63 335 -287 283 -489 -44 -172 -172 -291 -346 -323
-116 -22 -260 20 -356 105 -129 113 -161 340 -73 516 83 166 300 250 492 191z
m1655 -916 c44 -29 56 -78 43 -172 -16 -114 -65 -301 -95 -368 -62 -134 -152
-203 -546 -414 -1045 -560 -1153 -612 -1233 -594 -70 15 -105 64 -93 130 13
69 81 127 696 596 184 141 490 376 680 522 190 146 372 280 405 297 64 32 97
33 143 3z m-3406 -15 c22 -11 148 -102 280 -202 132 -100 294 -221 359 -269
190 -140 580 -449 626 -496 106 -108 86 -259 -40 -318 -67 -31 -169 -33 -250
-5 -74 26 -725 361 -843 434 -197 122 -239 199 -304 562 -14 75 -20 146 -18
189 3 62 7 71 36 97 40 36 94 39 154 8z m1321 -436 c139 -37 145 -38 322 -38
170 1 186 2 302 33 156 41 195 42 234 3 39 -40 39 -79 -2 -126 -33 -37 -244
-204 -348 -275 -117 -80 -220 -94 -331 -44 -86 38 -401 274 -446 334 -29 39
-25 97 9 126 40 34 91 31 260 -13z m2552 -207 c72 -30 90 -107 59 -243 -41
-180 -168 -674 -207 -808 -107 -366 -159 -539 -197 -660 -23 -71 -56 -177 -74
-235 -55 -178 -96 -233 -179 -245 -23 -3 -561 -5 -1195 -3 l-1154 3 -24 28
c-45 53 -25 125 43 154 33 13 35 17 30 51 -2 20 -17 66 -32 101 -40 95 -38
142 13 243 72 145 119 182 483 379 134 72 318 172 409 222 164 89 644 347 980
527 96 52 285 151 420 220 135 69 296 155 358 189 159 89 206 102 267 77z
m-4277 -137 c336 -172 590 -306 777 -409 77 -42 255 -138 395 -213 299 -161
347 -194 374 -259 17 -41 18 -53 7 -87 -15 -51 -49 -85 -154 -154 -141 -93
-198 -179 -263 -398 -44 -149 -51 -165 -80 -184 -33 -21 -63 -83 -99 -204 -46
-156 -17 -145 -414 -149 l-327 -3 -34 23 c-49 33 -65 69 -50 114 8 22 22 40
38 47 15 6 28 12 30 12 5 4 -31 81 -46 98 -8 9 -24 17 -34 17 -11 0 -38 18
-60 40 -23 22 -49 40 -59 40 -21 0 -34 40 -135 407 -310 1127 -327 1196 -322
1282 4 57 8 67 36 92 27 25 41 29 88 29 52 0 74 -10 332 -141z m827 -2171 c20
-18 26 -32 27 -66 1 -91 -32 -102 -316 -102 -232 0 -263 4 -303 42 -39 37 -27
119 20 138 12 5 140 9 284 9 258 1 262 1 288 -21z m2796 12 c32 -9 43 -18 55
-47 19 -43 9 -79 -30 -107 -27 -21 -31 -21 -1213 -21 l-1185 0 -19 24 c-41 51
-16 124 51 149 37 14 2290 15 2341 2z m-2887 -321 c35 -28 36 -86 3 -117 -34
-32 -79 -42 -188 -42 -182 0 -249 27 -249 101 0 29 6 42 26 58 25 19 40 21
204 21 164 0 179 -2 204 -21z m2835 -3 c31 -28 28 -86 -5 -117 -24 -22 -35
-24 -207 -32 -102 -5 -619 -5 -1178 0 -960 8 -998 9 -1018 27 -14 13 -21 31
-21 56 0 41 21 66 66 80 16 5 549 8 1185 7 1122 -2 1158 -3 1178 -21z m-2912
-281 c46 -31 41 -101 -10 -139 -40 -29 -167 -35 -217 -9 -89 46 -73 147 28
165 55 10 173 0 199 -17z m2820 2 c69 -36 57 -114 -24 -156 -16 -8 -342 -11
-1183 -11 l-1162 0 -29 29 c-44 44 -34 100 24 133 24 14 892 24 1848 22 431
-1 499 -4 526 -17z m-73 -308 c38 -30 34 -92 -7 -123 l-28 -21 -1162 -2 c-921
-2 -1167 0 -1187 10 -34 17 -47 57 -31 95 27 64 -32 61 1237 61 l1151 1 27
-21z m-2824 -9 c41 -41 7 -120 -52 -120 -24 0 -68 44 -68 68 0 59 79 93 120
52z"/>
<path d="M4188 1484 c-88 -38 -41 -94 79 -94 99 0 96 95 -4 106 -22 2 -54 -3
-75 -12z"/>
<path d="M2610 1429 c0 -5 5 -7 10 -4 6 3 10 8 10 11 0 2 -4 4 -10 4 -5 0 -10
-5 -10 -11z"/>
</g>
</svg>
