<svg width="49.236mm" height="59.572mm" version="1.1" viewBox="0 0 49.236 59.572" xmlns="http://www.w3.org/2000/svg">
 <path d="m28.033 54.621c-1.3859-0.32872-2.8794-1.2509-6.4045-3.9547l-1.7341-1.3301-4.192 0.2972c-4.9054 0.34777-6.7949-0.11094-8.4219-2.0446-0.91589-1.0885-1.1018-1.7579-1.1018-3.9665 0-4.8908 2.328-7.8469 7.174-9.1093 1.4921-0.38871 2.5795-1.0292 3.4771-2.0484 2.4183-2.7455 7.1288-4.2492 9.498-3.0319 2.691 1.3825 4.3613 3.7873 5.1344 7.392 0.33746 1.5735 0.86008 2.5826 1.7063 3.2947 1.6945 1.4258 3.0297 4.3854 3.0183 6.6903-0.01644 3.2314-2.1847 6.8996-4.6285 7.8288-1.2085 0.45947-1.5208 0.45792-3.5252-0.01753zm10.338-11.579c-2.1605-0.93582-3.861-2.7071-4.1675-4.341-0.53232-2.8375 3.0699-7.948 6.244-8.8583 1.7063-0.48936 3.1767 0.52294 4.4852 3.0878 2.0052 3.9306 1.3272 7.774-1.7319 9.8176-1.715 1.1457-2.722 1.2069-4.8298 0.29393zm-32.41-9.2885c-1.8884-0.77291-2.6102-2.1485-2.6102-4.9743 0-2.1302 0.20338-2.9425 0.98576-3.9371 1.3827-1.7578 3.4939-3.2321 5.481-3.8274 1.627-0.48745 1.7423-0.45342 2.916 0.86012 3.0122 3.3712 2.7446 10.13-0.46445 11.734-1.2142 0.6067-4.9691 0.69301-6.3081 0.14499zm26.328-4.2661c-3.1585-1.5869-4.2949-4.9516-3.29-9.7416 0.97661-4.6553 3.1452-7.9766 5.8624-8.9785 0.01661-0.01283 1.1934-0.54478 2.3999-0.09466 0.86934 0 2.6926 2.4942 3.52 4.8153 0.82348 2.3102 0.9607 7.4535 0.25581 9.5893-0.64495 1.9542-2.9403 4.1919-4.8666 4.7444-1.9703 0.56508-2.1164 0.5525-3.8813-0.33422zm-14.617-4.4087c-2.902-1.7697-3.6317-6.2541-1.653-10.159 1.4998-2.9598 5.3251-6.674 7.5644-7.3449 2.3179-0.69445 3.6039-0.081423 4.8168 2.2962 0.76317 1.496 0.89848 2.3398 0.71773 4.4765-0.32365 3.8263-1.8547 7.519-4.0228 9.7025-1.661 1.6728-2.0382 1.8488-3.9596 1.8473-1.3096-9.76e-4 -2.6373-0.31483-3.4636-0.81872z" stroke-width=".43504"/>
</svg>
