<svg width="49.236mm" height="59.572mm" version="1.1" viewBox="0 0 49.236 59.572" xmlns="http://www.w3.org/2000/svg">
 <path d="m11.433 49.466c-1.569-0.24634-4.157-0.92462-5.5971-1.4669-1.4452-0.54421-4.4163-2.0163-4.5694-2.2639-0.059158-0.09572 1.0275-0.22639 2.4149-0.2904 1.8539-0.08553 2.9955-0.25288 4.3076-0.63147 2.0445-0.58992 4.6748-1.7886 5.9772-2.7239l0.89237-0.64086-1.4626-0.3117c-3.3102-0.70542-5.9777-2.8648-7.1999-5.8285l-0.31816-0.77146 0.83512 0.13354c0.8849 0.1415 3.1604-0.04261 3.1604-0.25572 0-0.0694-0.46862-0.29193-1.0414-0.49452-2.783-0.98438-5.0108-3.338-5.9082-6.2418-0.40333-1.3051-0.5191-2.8057-0.21646-2.8057 0.095229 0 0.56385 0.17264 1.0414 0.38365 0.47753 0.21101 1.3592 0.44648 1.9592 0.52326l1.091 0.13961-0.91033-0.80961c-3.158-2.8086-4.1694-7.3094-2.5161-11.196 0.22043-0.51821 0.4121-0.94182 0.42594-0.94137 0.013839 4.56e-4 1.007 0.96017 2.2071 2.1327 4.674 4.5667 10.208 7.1794 16.702 7.8856l1.2297 0.13372-0.11706-1.3963c-0.24156-2.8813 0.76858-5.6518 2.8037-7.6896 1.9721-1.9747 4.1014-2.8457 6.9673-2.8499 2.4813-0.0036 4.5355 0.7504 6.2802 2.3053 0.62389 0.55603 0.84146 0.63996 1.3885 0.53563 0.92491-0.1764 3.2586-1.0231 4.3876-1.5919 0.52905-0.26655 0.99239-0.45416 1.0296-0.41691 0.14345 0.14345-0.74912 1.8616-1.4328 2.7581-0.3943 0.51704-1.1043 1.2303-1.5778 1.5851s-0.82436 0.68164-0.77965 0.72634c0.13086 0.13086 2.2805-0.3594 3.744-0.85389 0.74257-0.2509 1.3228-0.37941 1.2893-0.28557-0.17246 0.48383-2.3418 2.8622-3.4372 3.7683l-1.2527 1.0363-0.01491 1.8642c-0.04183 5.2205-1.7548 10.532-4.9483 15.345-1.4617 2.2028-4.9972 5.7413-7.1913 7.1974-2.8065 1.8626-5.7623 3.1174-9.3003 3.948-1.9081 0.44801-8.3453 0.66979-10.342 0.35632z" stroke-width=".19836"/>
</svg>
