<?xml version="1.0" encoding="UTF-8" standalone="no"?>
<svg
   xmlns:dc="http://purl.org/dc/elements/1.1/"
   xmlns:cc="http://creativecommons.org/ns#"
   xmlns:rdf="http://www.w3.org/1999/02/22-rdf-syntax-ns#"
   xmlns:svg="http://www.w3.org/2000/svg"
   xmlns="http://www.w3.org/2000/svg"
   width="307.77826mm"
   height="77.52346mm"
   viewBox="0 0 307.77826 77.52346"
   version="1.1"
   id="svg1147">
  <defs
     id="defs1141" />
  <metadata
     id="metadata1144">
    <rdf:RDF>
      <cc:Work
         rdf:about="">
        <dc:format>image/svg+xml</dc:format>
        <dc:type
           rdf:resource="http://purl.org/dc/dcmitype/StillImage" />
        <dc:title></dc:title>
      </cc:Work>
    </rdf:RDF>
  </metadata>
  <g
     id="layer1"
     transform="translate(29.905799,335.12615)">
    <path
       style="fill:#ffffff;fill-opacity:1;stroke-width:0.264583"
       d="m 53.638419,-325.9597 c -0.381307,-0.58194 -0.329443,-0.87865 0.774644,-4.43177 0.805347,-2.59172 1.365854,-3.95596 1.754796,-4.27109 0.527802,-0.42762 1.616824,-0.46302 14.247589,-0.46302 10.284193,0 13.754851,0.0787 13.993606,0.3175 0.479422,0.47942 0.392803,1.22171 -0.476319,4.08173 -1.245237,4.09772 -1.537718,4.7536 -2.268196,5.08643 -0.474374,0.21614 -4.559342,0.30393 -14.142252,0.30393 H 54.047086 Z"
       id="path1993" />
    <path
       style="fill:#ffffff;fill-opacity:1;stroke-width:0.264583"
       d="m 65.808845,-317.24657 c -0.436562,-0.19879 -1.905585,-1.48795 -3.264493,-2.86479 -1.949529,-1.97525 -2.451862,-2.63688 -2.38125,-3.13638 l 0.08949,-0.63304 5.953125,-0.0772 c 3.274219,-0.0425 6.368177,-0.002 6.875466,0.0898 1.340601,0.24278 6.411968,5.23476 6.299179,6.20058 l -0.07777,0.66592 -6.350001,0.0582 c -4.904308,0.045 -6.53071,-0.024 -7.14375,-0.3032 z"
       id="path1991" />
    <path
       style="fill:#ff007f;fill-opacity:1;stroke-width:0.264583"
       d="m 3.9765015,-314.16337 c -8.155961,-6.17588 -9.073409,-7.03002 -8.158472,-7.59548 0.140835,-0.087 2.364052,0.45795 4.94048296,1.21109 2.57643004,0.75314 5.11317304,1.36934 5.63721004,1.36934 0.524036,0 2.880431,-0.55201 5.2364345,-1.2267 4.539935,-1.3001 4.970775,-1.37957 5.227476,-0.96422 0.269891,0.4367 -0.172191,0.94383 -2.247664,2.57837 -5.3730125,4.23154 -7.7171925,5.89039 -8.3239215,5.89039 -0.359249,0 -1.381101,-0.55823 -2.311546,-1.26279 z"
       id="path1989" />
    <path
       style="fill:#ff007f;fill-opacity:1;stroke-width:0.264583"
       d="m -9.7296985,-311.56933 c -5.9216405,-3.17367 -7.9124455,-4.36581 -8.2495805,-4.94002 -0.489052,-0.83295 -2.437446,-10.82063 -2.220947,-11.38481 0.07434,-0.19374 0.382166,-0.35225 0.684051,-0.35225 0.31602,0 5.202363,3.59974 11.5176795,8.48501 12.693717,9.81933 12.15039,9.16708 9.352191,11.227 -1.14692104,0.84431 -1.85798104,1.184 -2.447396,1.16916 -0.53961,-0.0136 -3.566388,-1.48705 -8.635998,-4.20409 z"
       id="path1987" />
    <path
       style="fill:#ffffff;fill-opacity:1;stroke-width:0.264583"
       d="m 149.96525,-306.1726 c -0.56131,-0.5613 -0.52299,-1.15946 0.25304,-3.94985 0.36423,-1.30969 0.78393,-2.82725 0.93266,-3.37236 0.52218,-1.91382 0.88688,-2.0516 5.43056,-2.0516 3.47577,0 4.10154,0.0645 4.60884,0.47533 0.43311,0.35071 0.85639,1.47369 1.61449,4.28332 1.46126,5.41561 1.92759,5.03093 -6.09882,5.03093 -5.39722,0 -6.38599,-0.061 -6.74077,-0.41577 z"
       id="path1985" />
    <path
       style="fill:#ffffff;fill-opacity:1;stroke-width:0.264583"
       d="m 117.92891,-306.28914 c -0.54013,-0.59685 -0.58243,-0.31546 0.89911,-5.98202 l 0.83848,-3.20705 -1.19809,-4.65501 c -0.65896,-2.56025 -1.19729,-4.92709 -1.19629,-5.25962 0.001,-0.33254 0.47931,-2.39056 1.06292,-4.57336 1.42371,-5.32494 1.22411,-5.15938 6.21996,-5.15938 3.75474,0 3.82237,0.0103 4.23932,0.64667 0.39894,0.60886 0.36607,0.85245 -0.56225,4.16718 -1.2488,4.45903 -1.25088,5.50004 -0.02,10.00282 1.33197,4.87263 1.19016,4.7625 6.13252,4.7625 5.08885,0 4.95943,0.17651 3.62469,-4.94335 -0.95977,-3.68151 -0.96784,-3.75408 -0.47785,-4.2955 0.46043,-0.50878 0.78527,-0.55073 4.26454,-0.55073 3.21496,0 3.85115,0.0688 4.34701,0.47036 0.71863,0.58191 2.67706,7.20462 2.7167,9.18693 0.0403,2.01486 -1.80296,8.57701 -2.61974,9.32656 l -0.64872,0.59531 h -13.57028 c -13.26101,0 -13.58126,-0.0121 -14.05202,-0.53231 z"
       id="path1983" />
    <path
       style="fill:#ffffff;fill-opacity:1;stroke-width:0.264583"
       d="m 85.802432,-306.13256 c -0.490672,-0.59123 -0.427416,-1.11092 0.602541,-4.95023 0.532077,-1.98339 0.96552,-4.00745 0.963208,-4.49791 -0.0024,-0.49046 -0.478565,-2.61754 -1.058334,-4.72683 -0.579771,-2.10929 -1.054126,-4.33522 -1.054126,-4.94651 0,-1.80286 2.002374,-8.86267 2.66854,-9.40852 0.481229,-0.39431 1.141814,-0.46302 4.451604,-0.46302 2.670074,0 3.985898,0.0994 4.204023,0.3175 0.491794,0.4918 0.383998,1.39271 -0.610995,5.10646 -0.506843,1.89177 -0.921996,3.87958 -0.922562,4.41735 -0.0019,1.69634 2.026878,8.74991 2.667513,9.27484 0.798523,0.6543 7.911036,0.69357 8.557356,0.0473 0.58008,-0.58009 0.53814,-0.97456 -0.51027,-4.79951 -0.50932,-1.85818 -0.92604,-3.87919 -0.92604,-4.49114 0,-1.82001 2.00236,-8.86388 2.6768,-9.41641 0.50263,-0.41178 1.06544,-0.46073 4.5632,-0.39688 5.13346,0.0937 4.96125,-0.14898 3.56532,5.02453 -0.55865,2.07046 -1.01574,4.20785 -1.01574,4.74977 0,0.54192 0.47544,2.74797 1.05653,4.90234 0.58108,2.15436 1.05733,4.35249 1.05833,4.88473 0.003,1.67321 -2.03565,8.76025 -2.67105,9.2849 -0.51809,0.42779 -1.603,0.46302 -14.25739,0.46302 -11.509482,0 -13.74642,-0.06 -14.008458,-0.37573 z"
       id="path1981" />
    <path
       style="fill:#ffffff;fill-opacity:1;stroke-width:0.264583"
       d="m 49.325303,-306.07436 c -0.480094,-0.4801 -0.393864,-1.27403 0.50577,-4.65673 0.883756,-3.32301 1.145468,-3.97396 1.799635,-4.47622 0.31901,-0.24492 4.245705,-0.32433 16.354851,-0.33073 l 15.935045,-0.008 0.417952,0.63787 c 0.390956,0.59668 0.354819,0.87439 -0.559478,4.29949 -0.728083,2.72752 -1.140642,3.81347 -1.617231,4.25692 l -0.639802,0.59531 h -15.93962 c -12.044707,0 -16.017206,-0.0776 -16.257122,-0.3175 z"
       id="path1979" />
    <path
       style="fill:#ff007f;fill-opacity:1;stroke-width:0.264583"
       d="m 3.4888935,-304.65389 c -0.450956,-0.36516 -0.554233,-0.64218 -0.419225,-1.12448 0.123624,-0.44164 4.536684,-4.0016 14.2407805,-11.48787 7.733904,-5.96635 14.259862,-10.88343 14.502131,-10.92683 1.077346,-0.19301 1.112702,0.50643 0.258913,5.12208 -0.450895,2.43758 -0.98965,4.7604 -1.197234,5.16183 -0.395589,0.76498 -1.061596,1.13983 -17.319589,9.74785 -7.9980735,4.2347 -8.8157635,4.51962 -10.0657765,3.50742 z"
       id="path1977" />
    <path
       style="fill:#ffffff;fill-opacity:1;stroke-width:0.264583"
       d="m 168.7252,-287.60559 c -0.39106,-0.59683 -0.31746,-0.99979 1.24443,-6.81302 1.21793,-4.533 1.8171,-6.33723 2.2496,-6.77398 l 0.58952,-0.59531 h 21.70176 21.70176 l 0.41519,0.63365 c 0.39171,0.59782 0.31565,0.96818 -1.34478,6.54844 -1.84679,6.20656 -2.05969,6.77353 -2.73944,7.29543 -0.32186,0.24711 -5.43425,0.32428 -21.9111,0.33073 l -21.4913,0.008 z"
       id="path1975" />
    <path
       style="fill:#ffffff;fill-opacity:1;stroke-width:0.264583"
       d="m 122.47069,-287.45509 c -0.24084,-0.26612 -0.43788,-0.6349 -0.43788,-0.81952 0,-0.18461 0.72159,-3.03274 1.60354,-6.32916 1.30401,-4.87395 1.72686,-6.10471 2.26371,-6.58882 l 0.66017,-0.59531 h 21.01352 21.01352 l 0.41589,0.63473 c 0.39159,0.59763 0.31616,1.00293 -1.29076,6.93501 -1.32635,4.89636 -1.83691,6.40575 -2.29119,6.7736 -0.55055,0.44581 -1.80319,0.47333 -21.54858,0.47333 -19.97362,0 -20.98475,-0.0229 -21.40194,-0.48386 z"
       id="path1973" />
    <path
       style="fill:#ffffff;fill-opacity:1;stroke-width:0.264583"
       d="m 171.26285,-274.64697 c -0.1715,-0.20665 -0.32376,-0.5936 -0.33835,-0.85989 -0.0329,-0.60084 1.85621,-7.69662 2.24202,-8.42134 0.62368,-1.17152 0.64493,-1.17373 11.368,-1.18254 l 10.2465,-0.008 0.39768,0.60693 c 0.36563,0.55802 0.30262,0.95768 -0.78217,4.96093 -0.85797,3.1662 -1.33369,4.48034 -1.7438,4.81704 -0.5156,0.42331 -1.44363,0.46302 -10.821,0.46302 -8.53809,0 -10.30931,-0.063 -10.56888,-0.37573 z"
       id="path1971" />
    <path
       style="fill:#ffffff;fill-opacity:1;stroke-width:0.264583"
       d="m 131.7342,-274.44762 c -0.62311,-0.62311 0.0673,-1.54058 4.38767,-5.8309 3.7066,-3.6808 4.73804,-4.56315 5.4901,-4.69655 0.50933,-0.0903 5.27183,-0.12995 10.58334,-0.088 l 9.65729,0.0762 0.0897,0.63492 c 0.0731,0.51718 -0.71189,1.4421 -4.23333,4.98798 -2.37769,2.39419 -4.7062,4.51949 -5.17447,4.7229 -0.67896,0.29493 -2.85363,0.36983 -10.73767,0.36983 -5.43745,0 -9.96565,-0.0794 -10.06266,-0.17639 z"
       id="path1969" />
    <path
       style="fill:#ff007f;fill-opacity:1;stroke-width:0.264583"
       d="m -16.04827,-265.07696 c -0.150806,-0.47295 -3.383683,-12.46849 -7.18417,-26.65677 -4.815569,-17.97787 -6.835204,-25.91718 -6.66328,-26.19376 0.135683,-0.21828 0.431633,-0.43332 0.657667,-0.47786 0.360265,-0.071 28.88384946,14.90175 29.77372746,15.62897 0.83128204,0.67934 0.211289,1.37144 -2.59245596,2.89397 -1.527969,0.82973 -2.989699,1.78517 -3.24829,2.12318 -0.264541,0.3458 -2.367018,7.6952 -4.8073805,16.80464 -2.385469,8.90454 -4.413343,16.31325 -4.506388,16.4638 -0.367582,0.59476 -1.155957,0.27147 -1.42943,-0.58617 z"
       id="path1967" />
    <path
       style="fill:#ff007f;fill-opacity:1;stroke-width:0.264583"
       d="m 28.283408,-258.34612 c -0.24325,-0.26879 -0.446503,-0.5984 -0.451673,-0.73246 -0.0052,-0.13406 1.334284,-5.2855 2.976563,-11.44764 2.92353,-10.96963 3.282254,-11.97356 4.096906,-11.46567 0.158777,0.099 1.652141,5.26886 3.31859,11.4886 2.529035,9.4392 2.980682,11.40741 2.732135,11.90625 -0.294299,0.59066 -0.367385,0.59846 -6.264011,0.66863 -5.517441,0.0657 -5.999506,0.0342 -6.40851,-0.41771 z"
       id="path1965" />
    <path
       style="fill:#ff007f;fill-opacity:1;stroke-width:0.264583"
       d="m -12.466817,-258.35112 c -0.240835,-0.26612 -0.437882,-0.6096 -0.437882,-0.76328 0,-0.47136 9.5106285,-35.80247 9.7659145,-36.27948 0.131583,-0.24586 0.458626,-0.63661 0.726768,-0.86832 0.559403,-0.48342 40.1644335,-21.55765 41.3655465,-22.01102 0.637723,-0.24071 0.865061,-0.22329 1.167345,0.0894 0.32535,0.3366 -0.678834,4.32081 -7.533376,29.88942 -6.420189,23.94839 -8.015065,29.58819 -8.473543,29.96406 -0.525452,0.43078 -1.803416,0.46302 -18.3538345,0.46302 -16.8977295,0 -17.8109965,-0.0242 -18.2269385,-0.48385 z"
       id="path1963" />
    <path
       id="path1959"
       style="fill:#ffffff;fill-opacity:1;stroke-width:0.999999"
       d="m 832.33789,-1140.6172 -2.49609,2.25 c -2.03063,1.8312 -3.61054,6.4386 -8.48828,24.75 -3.29639,12.375 -6.28869,24.1383 -6.6504,26.1387 -0.50267,2.7817 0.92377,9.6022 6.06446,29 3.69683,13.9496 6.69417,27.1613 6.66015,29.3613 -0.0341,2.2 -3.24466,14.1949 -7.13281,26.6543 -3.88815,12.45941 -7.06836,23.22456 -7.06836,23.92188 0,0.69733 0.74408,2.0899 1.6543,3.09571 1.58381,1.75011 6.28942,1.82812 109.39062,1.82812 101.14332,0 107.86142,-0.10704 109.81832,-1.75 1.4491,-1.21655 4.2248,-8.6797 9.1094,-24.48633 3.8645,-12.50568 7.0274,-23.77888 7.0274,-25.05078 0,-4.5453 -0.9576,-4.7129 -27.0118,-4.7129 -23.0881,0 -24.74282,-0.1203 -26.72261,-1.9648 -1.16081,-1.0814 -2.34803,-2.7689 -2.63867,-3.75 -3.26941,-11.0311 -12.625,-47.6917 -12.625,-49.4649 7.1e-4,-1.2761 2.93031,-13.3014 6.51171,-26.7246 6.07121,-22.7555 6.40867,-24.5643 4.97657,-26.75 l -1.53711,-2.3457 h -79.41992 z m 65.4043,56 c 22.81678,0 23.43254,0.053 25.91992,2.25 2.11551,1.8681 3.59545,6.1956 8.71875,25.4922 5.99879,22.5945 6.12075,23.2972 4.35352,25.25 -1.72321,1.904 -3.05431,2.0078 -25.55274,2.0078 -21.12877,0 -23.96589,-0.1921 -25.85547,-1.75 -1.59583,-1.3157 -3.60923,-7.2874 -8.11133,-24.0664 -3.29348,-12.2746 -5.98828,-23.1561 -5.98828,-24.1797 0,-1.0236 0.70601,-2.5674 1.57032,-3.4316 1.33901,-1.339 5.0306,-1.5723 24.94531,-1.5723 z"
       transform="scale(0.26458333)" />
    <path
       style="fill:#ffffff;fill-opacity:1;stroke-width:0.264583"
       d="m 168.50819,-258.08654 c -0.24084,-0.26612 -0.43788,-0.63731 -0.43788,-0.82486 0,-0.18755 0.8976,-3.12147 1.99468,-6.51982 1.49347,-4.62623 2.13985,-6.2805 2.57241,-6.58348 0.50688,-0.35503 3.19377,-0.40465 21.90911,-0.40465 21.05206,0 21.33769,0.007 21.81411,0.53342 0.4705,0.5199 0.433,0.69252 -1.48035,6.81302 -1.30948,4.18881 -2.15729,6.47781 -2.54637,6.87491 l -0.58329,0.59531 h -21.40227 c -20.39815,0 -21.42281,-0.0227 -21.84015,-0.48385 z"
       id="path1957" />
    <path
       style="fill:#ffffff;fill-opacity:1;stroke-width:0.264583"
       d="m 122.20611,-258.08654 c -0.24084,-0.26612 -0.4364,-0.65307 -0.43459,-0.8599 0.002,-0.20682 0.76849,-3.11347 1.70371,-6.45923 1.28852,-4.60961 1.8396,-6.19589 2.27498,-6.54844 0.53759,-0.43531 1.94258,-0.46524 21.8381,-0.46524 h 21.26355 l 0.41667,0.63592 c 0.39432,0.60181 0.31487,0.9672 -1.4814,6.81302 -1.43566,4.67224 -2.05494,6.32213 -2.54199,6.77241 l -0.64393,0.59531 H 143.6226 c -19.98772,0 -20.9993,-0.0229 -21.41649,-0.48385 z"
       id="path1955" />
    <path
       id="path1951"
       style="fill:#ffffff;fill-opacity:1;stroke-width:0.999999"
       d="m 301.33789,-1140.6172 -2.54883,2.25 c -2.12525,1.8764 -3.62904,6.3183 -9.05468,26.75 -3.57829,13.475 -6.50512,25.537 -6.50586,26.8027 -7.6e-4,1.2658 2.92304,13.2295 6.49804,26.586 3.66499,13.6926 6.5,26.3482 6.5,29.0176 0,2.6352 -2.66023,14.6476 -6,27.0937 -3.3,12.29788 -6,22.9188 -6,23.60158 0,0.68273 0.74405,2.0645 1.6543,3.07031 1.5768,1.74217 5.39978,1.82812 80.89062,1.82812 74.85523,0 79.35568,-0.0996 81.45899,-1.80273 1.73696,-1.40648 3.62154,-6.9572 8.57226,-25.24998 3.52245,-13.0154 6.36209,-25.5915 6.38477,-28.2676 0.0233,-2.898 -2.55366,-14.4579 -6.46094,-28.9824 -3.57498,-13.2893 -6.5,-25.3597 -6.5,-26.8223 0,-1.4625 2.91824,-13.5976 6.48438,-26.9668 5.99629,-22.4797 6.37015,-24.4805 4.97656,-26.6074 l -1.50781,-2.3008 h -79.41992 z m 65.4043,56 c 22.82644,0 23.43194,0.053 25.88867,2.25 2.06336,1.8455 3.60881,6.3596 8.60156,25.1055 5.72213,21.4842 5.9933,22.9977 4.51758,25.25 l -1.57031,2.3945 h -23.86524 c -21.24922,0 -24.09997,-0.1919 -26.00195,-1.75 -1.60835,-1.3176 -3.60916,-7.1863 -8.09375,-23.75 -3.27605,-12.1 -5.96478,-22.9795 -5.97461,-24.1777 -0.0419,-5.0463 1.32926,-5.3223 26.49805,-5.3223 z"
       transform="scale(0.26458333)" />
    <path
       style="fill:#ffffff;fill-opacity:1;stroke-width:0.264583"
       d="m 50.405327,-258.11914 c -0.696952,-0.64931 -0.469707,0.0987 -4.560425,-15.01094 -2.253837,-8.32486 -3.448103,-13.19127 -3.441369,-14.02292 0.0057,-0.70827 0.758674,-4.03003 1.696167,-7.48302 1.304126,-4.80339 1.817656,-6.3161 2.267955,-6.68073 0.541587,-0.43855 1.53732,-0.47136 14.305027,-0.47136 h 13.722922 l 0.388006,0.59531 c 0.354775,0.54433 0.242176,1.13913 -1.314773,6.94531 -1.286544,4.7978 -1.839791,6.46318 -2.263299,6.81302 -0.499221,0.41239 -1.25114,0.46303 -6.875113,0.46303 h -6.314588 l -0.416547,0.63573 c -0.39474,0.60244 -0.228849,1.32783 3.168901,13.85662 1.971995,7.27149 3.585446,13.39633 3.585446,13.61076 0,0.21443 -0.217734,0.58692 -0.483854,0.82775 -0.421318,0.38129 -1.286899,0.43789 -6.696986,0.43789 -5.796399,0 -6.25031,-0.0346 -6.76747,-0.51645 z"
       id="path1871" />
  </g>
</svg>
