<?xml version="1.0" encoding="UTF-8" standalone="no"?>
<svg
   class="head-img"
   xmlns:dc="http://purl.org/dc/elements/1.1/"
   xmlns:cc="http://creativecommons.org/ns#"
   xmlns:rdf="http://www.w3.org/1999/02/22-rdf-syntax-ns#"
   xmlns:svg="http://www.w3.org/2000/svg"
   xmlns="http://www.w3.org/2000/svg"
   xmlns:xlink="http://www.w3.org/1999/xlink"
   xmlns:sodipodi="http://sodipodi.sourceforge.net/DTD/sodipodi-0.dtd"
   xmlns:inkscape="http://www.inkscape.org/namespaces/inkscape"
   width="337.03665mm"
   height="425.70416mm"
   viewBox="0 0 337.03665 425.70416"
   version="1.1"
   id="svg1147"
   sodipodi:docname="r_head_p_1.svg"
   inkscape:version="0.92.4 (5da689c313, 2019-01-14)">
  <sodipodi:namedview
     pagecolor="#ffffff"
     bordercolor="#666666"
     borderopacity="1"
     objecttolerance="10"
     gridtolerance="10"
     guidetolerance="10"
     inkscape:pageopacity="0"
     inkscape:pageshadow="2"
     inkscape:window-width="1366"
     inkscape:window-height="708"
     id="namedview858"
     showgrid="false"
     inkscape:zoom="0.40301672"
     inkscape:cx="375.0375"
     inkscape:cy="527.22494"
     inkscape:window-x="0"
     inkscape:window-y="31"
     inkscape:window-maximized="1"
     inkscape:current-layer="svg1147"
     inkscape:document-rotation="0"
     showguides="true"
     fit-margin-top="0"
     fit-margin-left="0"
     fit-margin-right="0"
     fit-margin-bottom="0" />
  <defs
     id="defs1141" />
  <metadata
     id="metadata1144">
    <rdf:RDF>
      <cc:Work
         rdf:about="">
        <dc:format>image/svg+xml</dc:format>
        <dc:type
           rdf:resource="http://purl.org/dc/dcmitype/StillImage" />
        <dc:title />
      </cc:Work>
    </rdf:RDF>
  </metadata>
  <rect
     style="fill:#3900b4;fill-opacity:1;stroke-width:0.649468;stroke-linecap:square"
     id="rect874"
     width="359.44333"
     height="250.51497"
     x="-438.69467"
     y="-34.482819" />
  <path
     id="rect955"
     style="fill:#0a0069;fill-opacity:1;stroke-width:1.79209;stroke-linecap:square"
     d="M 37.847656 81.019531 C 16.880092 81.019531 0 97.899623 0 118.86719 L 0 581.38281 C 0 602.35038 16.880092 619.23047 37.847656 619.23047 L 121.00586 619.23047 C 120.19422 619.26189 119.41684 619.28434 118.70898 619.28516 L 120.08008 619.6543 C 131.70553 622.78133 141.15696 631.21677 145.50977 642.35156 C 146.22602 644.18388 146.5611 645.23683 147.04492 647.17773 C 147.55962 649.24234 148.04297 652.42447 148.04297 653.75195 C 148.04335 654.02274 148.06765 654.24609 148.09766 654.24609 C 148.10794 653.81012 148.13634 653.36842 148.17383 652.92383 L 148.17383 1566.1094 C 148.17383 1589.8495 167.28527 1608.9609 191.02539 1608.9609 L 1082.9473 1608.9609 C 1106.6874 1608.9609 1125.8008 1589.8495 1125.8008 1566.1094 L 1125.8008 653.6875 C 1125.8126 652.3314 1126.2866 649.21669 1126.7949 647.17773 C 1127.2788 645.23683 1127.6138 644.18384 1128.3301 642.35156 C 1132.6829 631.21673 1142.1343 622.78129 1153.7598 619.6543 L 1155.1309 619.28516 C 1154.5003 619.28443 1153.8351 619.26481 1153.1426 619.23047 L 1235.9922 619.23047 C 1256.9598 619.23047 1273.8398 602.35038 1273.8398 581.38281 L 1273.8398 118.86719 C 1273.8398 97.899623 1256.9598 81.019531 1235.9922 81.019531 L 37.847656 81.019531 z "
     transform="scale(0.26458333)" />
  <path
     id="rect908"
     style="fill:#000000;fill-opacity:0;stroke-width:0.926893;stroke-linecap:square"
     d="M 46.192292,130.91006 H 281.20195 c 6.55219,0 11.82706,5.27488 11.82706,11.82707 V 399.4038 c 0,6.55219 -5.27487,11.82707 -11.82706,11.82707 H 46.192292 c -6.552194,0 -11.827065,-5.27488 -11.827065,-11.82707 V 142.73713 c 0,-6.55219 5.274871,-11.82707 11.827065,-11.82707 z" />
  <path
     id="rect897"
     style="fill:#7400d5;fill-opacity:1;stroke-width:0.474157;stroke-linecap:square"
     d="M 10.013841,0 H 327.02281 c 5.54767,0 10.01384,4.4661729 10.01384,10.013841 V 132.38736 c 0,5.54767 -4.46617,10.01384 -10.01384,10.01384 H 10.013841 C 4.4661729,142.4012 0,137.93503 0,132.38736 V 10.013841 C 0,4.4661729 4.4661729,0 10.013841,0 Z" />
  <path
     style="fill:#ffffff;fill-opacity:1;stroke-width:0.264583"
     d="m 101.17486,42.789755 c -0.38131,-0.58194 -0.32945,-0.87865 0.77464,-4.43177 0.80535,-2.59172 1.36585,-3.95596 1.7548,-4.27109 0.5278,-0.42762 1.61682,-0.46302 14.24759,-0.46302 10.28419,0 13.75485,0.0787 13.9936,0.3175 0.47942,0.47942 0.3928,1.22171 -0.47632,4.08173 -1.24523,4.09772 -1.53772,4.7536 -2.26819,5.08643 -0.47438,0.21614 -4.55935,0.30393 -14.14226,0.30393 h -13.4752 z"
     id="path1993" />
  <path
     style="fill:#ffffff;fill-opacity:1;stroke-width:0.264583"
     d="m 113.34528,51.502885 c -0.43656,-0.19879 -1.90558,-1.48795 -3.26449,-2.86479 -1.94953,-1.97525 -2.45186,-2.63688 -2.38125,-3.13638 l 0.0895,-0.63304 5.95312,-0.0772 c 3.27422,-0.0425 6.36818,-0.002 6.87547,0.0898 1.3406,0.24278 6.41197,5.23476 6.29918,6.20058 l -0.0778,0.66592 -6.35,0.0582 c -4.90431,0.045 -6.53071,-0.024 -7.14375,-0.3032 z"
     id="path1991" />
  <path
     style="fill:#ff5bff;fill-opacity:1;stroke-width:0.264583"
     d="m 51.512943,54.586085 c -8.15596,-6.17588 -9.07341,-7.03002 -8.15848,-7.59548 0.14084,-0.087 2.36406,0.45795 4.94049,1.21109 2.57643,0.75314 5.11317,1.36934 5.63721,1.36934 0.52403,0 2.88043,-0.55201 5.23643,-1.2267 4.53994,-1.3001 4.97078,-1.37957 5.22748,-0.96422 0.26989,0.4367 -0.17219,0.94383 -2.24767,2.57837 -5.37301,4.23154 -7.71719,5.89039 -8.32392,5.89039 -0.35925,0 -1.3811,-0.55823 -2.31154,-1.26279 z"
     id="path1989" />
  <path
     style="fill:#ff5bff;fill-opacity:1;stroke-width:0.264583"
     d="m 37.806743,57.180125 c -5.92164,-3.17367 -7.91245,-4.36581 -8.24958,-4.94002 -0.48906,-0.83295 -2.43745,-10.82063 -2.22095,-11.38481 0.0743,-0.19374 0.38216,-0.35225 0.68405,-0.35225 0.31602,0 5.20236,3.59974 11.51768,8.48501 12.69372,9.81933 12.15039,9.16708 9.35219,11.227 -1.14692,0.84431 -1.85798,1.184 -2.4474,1.16916 -0.53961,-0.0136 -3.56638,-1.48705 -8.63599,-4.20409 z"
     id="path1987" />
  <path
     style="fill:#ffffff;fill-opacity:1;stroke-width:0.264583"
     d="m 197.50169,62.576855 c -0.56131,-0.5613 -0.52299,-1.15946 0.25304,-3.94985 0.36423,-1.30969 0.78393,-2.82725 0.93266,-3.37236 0.52218,-1.91382 0.88688,-2.0516 5.43056,-2.0516 3.47577,0 4.10154,0.0645 4.60884,0.47533 0.43311,0.35071 0.85639,1.47369 1.61449,4.28332 1.46126,5.41561 1.92759,5.03093 -6.09882,5.03093 -5.39722,0 -6.38599,-0.061 -6.74077,-0.41577 z"
     id="path1985" />
  <path
     style="fill:#ffffff;fill-opacity:1;stroke-width:0.264583"
     d="m 165.46535,62.460315 c -0.54013,-0.59685 -0.58243,-0.31546 0.89911,-5.98202 l 0.83848,-3.20705 -1.19809,-4.65501 c -0.65896,-2.56025 -1.19729,-4.92709 -1.19629,-5.25962 0.001,-0.33254 0.47931,-2.39056 1.06292,-4.57336 1.42371,-5.32494 1.22411,-5.15938 6.21996,-5.15938 3.75474,0 3.82237,0.0103 4.23932,0.64667 0.39894,0.60886 0.36607,0.85245 -0.56225,4.16718 -1.2488,4.45903 -1.25088,5.50004 -0.02,10.00282 1.33197,4.87263 1.19016,4.7625 6.13252,4.7625 5.08885,0 4.95943,0.17651 3.62469,-4.94335 -0.95977,-3.68151 -0.96784,-3.75408 -0.47785,-4.2955 0.46043,-0.50878 0.78527,-0.55073 4.26454,-0.55073 3.21496,0 3.85115,0.0688 4.34701,0.47036 0.71863,0.58191 2.67706,7.20462 2.7167,9.18693 0.0403,2.01486 -1.80296,8.57701 -2.61974,9.32656 l -0.64872,0.59531 h -13.57028 c -13.26101,0 -13.58126,-0.0121 -14.05202,-0.53231 z"
     id="path1983" />
  <path
     style="fill:#ffffff;fill-opacity:1;stroke-width:0.264583"
     d="m 133.33887,62.616895 c -0.49067,-0.59123 -0.42742,-1.11092 0.60254,-4.95023 0.53208,-1.98339 0.96552,-4.00745 0.96321,-4.49791 -0.002,-0.49046 -0.47857,-2.61754 -1.05834,-4.72683 -0.57977,-2.10929 -1.05412,-4.33522 -1.05412,-4.94651 0,-1.80286 2.00237,-8.86267 2.66854,-9.40852 0.48123,-0.39431 1.14181,-0.46302 4.4516,-0.46302 2.67008,0 3.9859,0.0994 4.20403,0.3175 0.49179,0.4918 0.38399,1.39271 -0.611,5.10646 -0.50684,1.89177 -0.922,3.87958 -0.92256,4.41735 -0.002,1.69634 2.02688,8.74991 2.66751,9.27484 0.79853,0.6543 7.91104,0.69357 8.55736,0.0473 0.58008,-0.58009 0.53814,-0.97456 -0.51027,-4.79951 -0.50932,-1.85818 -0.92604,-3.87919 -0.92604,-4.49114 0,-1.82001 2.00236,-8.86388 2.6768,-9.41641 0.50263,-0.41178 1.06544,-0.46073 4.5632,-0.39688 5.13346,0.0937 4.96125,-0.14898 3.56532,5.02453 -0.55865,2.07046 -1.01574,4.20785 -1.01574,4.74977 0,0.54192 0.47544,2.74797 1.05653,4.90234 0.58108,2.15436 1.05733,4.35249 1.05833,4.88473 0.003,1.67321 -2.03565,8.76025 -2.67105,9.2849 -0.51809,0.42779 -1.603,0.46302 -14.25739,0.46302 -11.50948,0 -13.74642,-0.06 -14.00846,-0.37573 z"
     id="path1981" />
  <path
     style="fill:#ffffff;fill-opacity:1;stroke-width:0.264583"
     d="m 96.861743,62.675095 c -0.48009,-0.4801 -0.39386,-1.27403 0.50577,-4.65673 0.88376,-3.32301 1.14547,-3.97396 1.79964,-4.47622 0.31901,-0.24492 4.245697,-0.32433 16.354847,-0.33073 l 15.93504,-0.008 0.41795,0.63787 c 0.39096,0.59668 0.35482,0.87439 -0.55947,4.29949 -0.72809,2.72752 -1.14065,3.81347 -1.61724,4.25692 l -0.6398,0.59531 h -15.93962 c -12.0447,0 -16.017197,-0.0776 -16.257117,-0.3175 z"
     id="path1979" />
  <path
     style="fill:#ff5bff;fill-opacity:1;stroke-width:0.264583"
     d="m 51.025333,64.095565 c -0.45096,-0.36516 -0.55423,-0.64218 -0.41923,-1.12448 0.12363,-0.44164 4.53669,-4.0016 14.24079,-11.48787 7.7339,-5.96635 14.25986,-10.88343 14.50213,-10.92683 1.07734,-0.19301 1.1127,0.50643 0.25891,5.12208 -0.45089,2.43758 -0.98965,4.7604 -1.19723,5.16183 -0.39559,0.76498 -1.0616,1.13983 -17.3196,9.74785 -7.99807,4.2347 -8.81576,4.51962 -10.06577,3.50742 z"
     id="path1977" />
  <path
     style="fill:#ffffff;fill-opacity:1;stroke-width:0.264583"
     d="m 216.26164,81.143865 c -0.39106,-0.59683 -0.31746,-0.99979 1.24443,-6.81302 1.21793,-4.533 1.8171,-6.33723 2.2496,-6.77398 l 0.58952,-0.59531 h 21.70176 21.70176 l 0.41519,0.63365 c 0.39171,0.59782 0.31565,0.96818 -1.34478,6.54844 -1.84679,6.20656 -2.05969,6.77353 -2.73944,7.29543 -0.32186,0.24711 -5.43425,0.32428 -21.9111,0.33073 l -21.4913,0.008 z"
     id="path1975" />
  <path
     style="fill:#ffffff;fill-opacity:1;stroke-width:0.264583"
     d="m 170.00713,81.294365 c -0.24084,-0.26612 -0.43788,-0.6349 -0.43788,-0.81952 0,-0.18461 0.72159,-3.03274 1.60354,-6.32916 1.30401,-4.87395 1.72686,-6.10471 2.26371,-6.58882 l 0.66017,-0.59531 h 21.01352 21.01352 l 0.41589,0.63473 c 0.39159,0.59763 0.31616,1.00293 -1.29076,6.93501 -1.32635,4.89636 -1.83691,6.40575 -2.29119,6.7736 -0.55055,0.44581 -1.80319,0.47333 -21.54858,0.47333 -19.97362,0 -20.98475,-0.0229 -21.40194,-0.48386 z"
     id="path1973" />
  <path
     style="fill:#ffffff;fill-opacity:1;stroke-width:0.264583"
     d="m 218.79929,94.102485 c -0.1715,-0.20665 -0.32376,-0.5936 -0.33835,-0.85989 -0.0329,-0.60084 1.85621,-7.69662 2.24202,-8.42134 0.62368,-1.17152 0.64493,-1.17373 11.368,-1.18254 l 10.2465,-0.008 0.39768,0.60693 c 0.36563,0.55802 0.30262,0.95768 -0.78217,4.96093 -0.85797,3.1662 -1.33369,4.48034 -1.7438,4.81704 -0.5156,0.42331 -1.44363,0.46302 -10.821,0.46302 -8.53809,0 -10.30931,-0.063 -10.56888,-0.37573 z"
     id="path1971" />
  <path
     style="fill:#ffffff;fill-opacity:1;stroke-width:0.264583"
     d="m 179.27064,94.301835 c -0.62311,-0.62311 0.0673,-1.54058 4.38767,-5.8309 3.7066,-3.6808 4.73804,-4.56315 5.4901,-4.69655 0.50933,-0.0903 5.27183,-0.12995 10.58334,-0.088 l 9.65729,0.0762 0.0897,0.63492 c 0.0731,0.51718 -0.71189,1.4421 -4.23333,4.98798 -2.37769,2.39419 -4.7062,4.51949 -5.17447,4.7229 -0.67896,0.29493 -2.85363,0.36983 -10.73767,0.36983 -5.43745,0 -9.96565,-0.0794 -10.06266,-0.17639 z"
     id="path1969" />
  <path
     style="fill:#ff5bff;fill-opacity:1;stroke-width:0.264583"
     d="m 31.488163,103.67249 c -0.1508,-0.47295 -3.38368,-12.468485 -7.18417,-26.656765 -4.81556,-17.97787 -6.8352,-25.91718 -6.66328,-26.19376 0.13569,-0.21828 0.43164,-0.43332 0.65767,-0.47786 0.36027,-0.071 28.88385,14.90175 29.77373,15.62897 0.83128,0.67934 0.21129,1.37144 -2.59246,2.89397 -1.52797,0.82973 -2.9897,1.78517 -3.24829,2.12318 -0.26454,0.3458 -2.36701,7.6952 -4.80738,16.80464 -2.38547,8.90454 -4.41334,16.313245 -4.50639,16.463795 -0.36758,0.59476 -1.15595,0.27147 -1.42943,-0.58617 z"
     id="path1967" />
  <path
     style="fill:#ff5bff;fill-opacity:1;stroke-width:0.264583"
     d="m 75.819853,110.40333 c -0.24325,-0.26879 -0.44651,-0.5984 -0.45168,-0.73246 -0.005,-0.13406 1.33429,-5.2855 2.97657,-11.447635 2.92353,-10.96963 3.28225,-11.97356 4.0969,-11.46567 0.15878,0.099 1.65214,5.26886 3.31859,11.4886 2.52904,9.439195 2.98068,11.407405 2.73214,11.906245 -0.2943,0.59066 -0.36739,0.59846 -6.26401,0.66863 -5.51744,0.0657 -5.99951,0.0342 -6.40851,-0.41771 z"
     id="path1965" />
  <path
     style="fill:#ff5bff;fill-opacity:1;stroke-width:0.264583"
     d="m 35.069623,110.39833 c -0.24084,-0.26612 -0.43788,-0.6096 -0.43788,-0.76328 0,-0.47136 9.51062,-35.802465 9.76591,-36.279475 0.13158,-0.24586 0.45863,-0.63661 0.72677,-0.86832 0.5594,-0.48342 40.16443,-21.55765 41.36555,-22.01102 0.63772,-0.24071 0.86506,-0.22329 1.16734,0.0894 0.32535,0.3366 -0.67883,4.32081 -7.53337,29.88942 -6.42019,23.948385 -8.01507,29.588185 -8.47355,29.964055 -0.52545,0.43078 -1.80341,0.46302 -18.35383,0.46302 -16.89773,0 -17.811,-0.0242 -18.22694,-0.48385 z"
     id="path1963" />
  <path
     id="path1959"
     style="fill:#ffffff;fill-opacity:1;stroke-width:0.264583"
     d="m 267.75917,66.961155 -0.66043,0.59532 c -0.53727,0.4845 -0.95528,1.70354 -2.24585,6.54843 -0.87217,3.27422 -1.66389,6.38659 -1.75959,6.91587 -0.133,0.73599 0.24442,2.54058 1.60456,7.67291 0.97812,3.69084 1.77116,7.18643 1.76216,7.76851 -0.009,0.58209 -0.85848,3.755735 -1.88722,7.052285 -1.02874,3.29655 -1.87017,6.14483 -1.87017,6.32933 0,0.1845 0.19687,0.55295 0.4377,0.81907 0.41905,0.46305 1.66408,0.48369 28.94293,0.48369 26.76084,0 28.53834,-0.0283 29.0561,-0.46302 0.38341,-0.32188 1.11781,-2.2965 2.4102,-6.47867 1.02248,-3.3088 1.85933,-6.291495 1.85933,-6.628015 0,-1.20261 -0.25337,-1.24696 -7.14687,-1.24696 -6.10873,0 -6.54654,-0.0318 -7.07036,-0.51985 -0.30713,-0.28612 -0.62125,-0.73261 -0.69815,-0.99219 -0.86503,-2.91864 -3.34036,-12.61843 -3.34036,-13.08759 1.9e-4,-0.33763 0.77531,-3.51932 1.72289,-7.07088 1.60634,-6.02073 1.69562,-6.4993 1.31671,-7.0776 l -0.40669,-0.62064 h -21.01319 z m 17.30489,14.81667 c 6.03694,0 6.19986,0.014 6.85797,0.59531 0.55973,0.49427 0.9513,1.63925 2.30684,6.74481 1.58718,5.97813 1.61945,6.16405 1.15187,6.68073 -0.45593,0.50377 -0.80812,0.53123 -6.76083,0.53123 -5.59032,0 -6.34097,-0.0508 -6.84093,-0.46302 -0.42223,-0.34811 -0.95494,-1.92812 -2.14612,-6.36757 -0.8714,-3.24765 -1.5844,-6.12671 -1.5844,-6.39754 0,-0.27083 0.1868,-0.67929 0.41548,-0.90795 0.35428,-0.35427 1.33102,-0.416 6.60012,-0.416 z" />
  <path
     style="fill:#ffffff;fill-opacity:1;stroke-width:0.264583"
     d="m 216.04463,110.66291 c -0.24084,-0.26612 -0.43788,-0.63731 -0.43788,-0.82486 0,-0.18755 0.8976,-3.12147 1.99468,-6.51982 1.49347,-4.626225 2.13985,-6.280495 2.57241,-6.583475 0.50688,-0.35503 3.19377,-0.40465 21.90911,-0.40465 21.05206,0 21.33769,0.007 21.81411,0.53342 0.4705,0.5199 0.433,0.69252 -1.48035,6.813015 -1.30948,4.18881 -2.15729,6.47781 -2.54637,6.87491 l -0.58329,0.59531 h -21.40227 c -20.39815,0 -21.42281,-0.0227 -21.84015,-0.48385 z"
     id="path1957" />
  <path
     style="fill:#ffffff;fill-opacity:1;stroke-width:0.264583"
     d="m 169.74255,110.66291 c -0.24084,-0.26612 -0.4364,-0.65307 -0.43459,-0.8599 0.002,-0.20682 0.76849,-3.11347 1.70371,-6.45923 1.28852,-4.609605 1.8396,-6.195885 2.27498,-6.548435 0.53759,-0.43531 1.94258,-0.46524 21.8381,-0.46524 h 21.26355 l 0.41667,0.63592 c 0.39432,0.60181 0.31487,0.9672 -1.4814,6.813015 -1.43566,4.67224 -2.05494,6.32213 -2.54199,6.77241 l -0.64393,0.59531 h -20.97861 c -19.98772,0 -20.9993,-0.0229 -21.41649,-0.48385 z"
     id="path1955" />
  <path
     id="path1951"
     style="fill:#ffffff;fill-opacity:1;stroke-width:0.264583"
     d="m 127.26542,66.961155 -0.67438,0.59532 c -0.5623,0.49646 -0.96018,1.67171 -2.39571,7.0776 -0.94676,3.56526 -1.72115,6.75666 -1.72135,7.09155 -2e-4,0.33491 0.77339,3.5003 1.71928,7.03421 0.96969,3.62283 1.71979,6.97129 1.71979,7.67757 0,0.69723 -0.70385,3.875505 -1.5875,7.168535 -0.87313,3.25382 -1.5875,6.06394 -1.5875,6.24459 0,0.18064 0.19686,0.54623 0.4377,0.81235 0.41719,0.46095 1.42869,0.48369 21.40231,0.48369 19.80544,0 20.99619,-0.0263 21.55269,-0.47697 0.45957,-0.37213 0.9582,-1.84076 2.26808,-6.68072 0.93198,-3.44366 1.6833,-6.771085 1.6893,-7.479135 0.006,-0.76676 -0.67566,-3.82532 -1.70946,-7.66826 -0.94588,-3.51613 -1.71979,-6.70975 -1.71979,-7.09673 0,-0.38696 0.77212,-3.5977 1.71566,-7.13497 1.58652,-5.94775 1.68543,-6.47713 1.31671,-7.03987 l -0.39894,-0.60876 h -21.01318 z m 17.30489,14.81667 c 6.03949,0 6.1997,0.014 6.84971,0.59531 0.54593,0.48829 0.95483,1.68265 2.27583,6.6425 1.51398,5.68436 1.58573,6.08481 1.19527,6.68073 l -0.41547,0.63354 h -6.31435 c -5.62219,0 -6.37645,-0.0508 -6.87968,-0.46302 -0.42554,-0.34861 -0.95492,-1.90137 -2.14147,-6.28385 -0.86679,-3.20146 -1.57818,-6.07999 -1.58078,-6.39702 -0.0111,-1.33517 0.3517,-1.40819 7.01094,-1.40819 z" />
  <path
     style="fill:#ffffff;fill-opacity:1;stroke-width:0.264583"
     d="m 97.941763,110.63031 c -0.69695,-0.64931 -0.4697,0.0987 -4.56042,-15.010935 -2.25384,-8.32486 -3.4481,-13.19127 -3.44137,-14.02292 0.006,-0.70827 0.75867,-4.03003 1.69617,-7.48302 1.30412,-4.80339 1.81765,-6.3161 2.26795,-6.68073 0.54159,-0.43855 1.53732,-0.47136 14.305027,-0.47136 h 13.72292 l 0.38801,0.59531 c 0.35477,0.54433 0.24217,1.13913 -1.31478,6.94531 -1.28654,4.7978 -1.83979,6.46318 -2.26329,6.81302 -0.49923,0.41239 -1.25114,0.46303 -6.87512,0.46303 h -6.31458 l -0.41655,0.63573 c -0.39474,0.60244 -0.22885,1.32783 3.1689,13.85662 1.97199,7.271485 3.58544,13.396325 3.58544,13.610755 0,0.21443 -0.21773,0.58692 -0.48385,0.82775 -0.42132,0.38129 -1.2869,0.43789 -6.69699,0.43789 -5.796387,0 -6.250307,-0.0346 -6.767467,-0.51645 z"
     id="path1871" />
  <a
     id="a4660"
     xlink:href="https://instagram.com/sub.rozea">
    <g
       id="g4623">
      <rect
         style="fill:#0a0069;fill-opacity:1;stroke-width:0.27805048"
         id="rect4587"
         width="249.1627"
         height="58.956017"
         x="43.895596"
         y="286.58646" />
      <g
         aria-label="INsTAGRAM"
         id="text882"
         style="font-style:normal;font-variant:normal;font-weight:normal;font-stretch:normal;font-size:40.1348px;line-height:1.25;font-family:'ISL_ALPHABOT XEN';-inkscape-font-specification:'ISL_ALPHABOT XEN, Normal';font-variant-ligatures:normal;font-variant-caps:normal;font-variant-numeric:normal;font-variant-east-asian:normal;letter-spacing:0px;fill:#ffffff;fill-opacity:1;stroke:#ffffff;stroke-width:1.00338;stroke-opacity:1"
         transform="translate(-90.801989,-286.56787)">
        <path
           d="m 158.71764,592.59862 h 4.01348 v 20.0674 h -4.01348 z"
           style="font-style:normal;font-variant:normal;font-weight:normal;font-stretch:normal;font-size:40.1348px;font-family:'ISL_ALPHABOT XEN';-inkscape-font-specification:'ISL_ALPHABOT XEN, Normal';font-variant-ligatures:normal;font-variant-caps:normal;font-variant-numeric:normal;font-variant-east-asian:normal;fill:#ffffff;fill-opacity:1;stroke:#ffffff;stroke-width:1.00338;stroke-opacity:1"
           id="path1024" />
        <path
           d="m 166.74455,592.59862 h 8.02696 v 0 0 l 4.01348,4.01348 v 10.36815 l 1.67228,1.67229 h 2.3412 v -16.05392 h 4.01348 v 20.0674 h -8.02696 v 0 0 l -4.01348,-4.01348 v -10.36816 l -1.67228,-1.67228 h -2.3412 v 16.05392 h -4.01348 z"
           style="font-style:normal;font-variant:normal;font-weight:normal;font-stretch:normal;font-size:40.1348px;font-family:'ISL_ALPHABOT XEN';-inkscape-font-specification:'ISL_ALPHABOT XEN, Normal';font-variant-ligatures:normal;font-variant-caps:normal;font-variant-numeric:normal;font-variant-east-asian:normal;fill:#ffffff;fill-opacity:1;stroke:#ffffff;stroke-width:1.00338;stroke-opacity:1"
           id="path1026" />
        <path
           d="m 210.89277,596.6121 h -14.38164 l -1.67228,1.67228 v 0.66891 l 1.67228,1.67229 h 10.36816 l 4.01348,4.01348 v 4.01348 l -4.01348,4.01348 h -16.05392 v -4.01348 H 205.207 l 1.67229,-1.67229 v -0.66891 l -1.67229,-1.67228 h -10.36815 l -4.01348,-4.01348 v -4.01348 l 4.01348,-4.01348 h 16.05392 z"
           style="font-style:normal;font-variant:normal;font-weight:normal;font-stretch:normal;font-size:40.1348px;font-family:'ISL_ALPHABOT XEN';-inkscape-font-specification:'ISL_ALPHABOT XEN, Normal';font-variant-ligatures:normal;font-variant-caps:normal;font-variant-numeric:normal;font-variant-east-asian:normal;fill:#ffffff;fill-opacity:1;stroke:#ffffff;stroke-width:1.00338;stroke-opacity:1"
           id="path1028" />
        <path
           d="m 214.90619,592.59862 h 20.0674 v 4.01348 h -8.02696 v 16.05392 h -4.01348 V 596.6121 h -8.02696 z"
           style="font-style:normal;font-variant:normal;font-weight:normal;font-stretch:normal;font-size:40.1348px;font-family:'ISL_ALPHABOT XEN';-inkscape-font-specification:'ISL_ALPHABOT XEN, Normal';font-variant-ligatures:normal;font-variant-caps:normal;font-variant-numeric:normal;font-variant-east-asian:normal;fill:#ffffff;fill-opacity:1;stroke:#ffffff;stroke-width:1.00338;stroke-opacity:1"
           id="path1030" />
        <path
           d="m 235.50535,612.66602 v -8.02696 l 12.04044,-12.04044 h 8.02696 v 20.0674 h -4.01348 V 596.6121 h -2.3412 l -9.69924,9.69924 v 6.35468 z"
           style="font-style:normal;font-variant:normal;font-weight:normal;font-stretch:normal;font-size:40.1348px;font-family:'ISL_ALPHABOT XEN';-inkscape-font-specification:'ISL_ALPHABOT XEN, Normal';font-variant-ligatures:normal;font-variant-caps:normal;font-variant-numeric:normal;font-variant-east-asian:normal;fill:#ffffff;fill-opacity:1;stroke:#ffffff;stroke-width:1.00338;stroke-opacity:1"
           id="path1032" />
        <path
           d="m 259.58617,596.6121 4.01348,-4.01348 h 16.05392 v 4.01348 h -14.38164 l -1.67228,1.67228 v 8.69587 l 1.67228,1.67229 h 8.69587 l 1.67229,-1.67229 v -2.34119 h -4.01348 v -4.01348 h 8.02696 v 8.02696 l -4.01348,4.01348 h -12.04044 l -4.01348,-4.01348 z"
           style="font-style:normal;font-variant:normal;font-weight:normal;font-stretch:normal;font-size:40.1348px;font-family:'ISL_ALPHABOT XEN';-inkscape-font-specification:'ISL_ALPHABOT XEN, Normal';font-variant-ligatures:normal;font-variant-caps:normal;font-variant-numeric:normal;font-variant-east-asian:normal;fill:#ffffff;fill-opacity:1;stroke:#ffffff;stroke-width:1.00338;stroke-opacity:1"
           id="path1034" />
        <path
           d="m 283.66698,592.59862 h 20.0674 v 12.04044 l -2.00674,2.00674 2.00674,2.00674 v 4.01348 h -4.01348 v -2.3412 l -1.67228,-1.67228 h -10.36816 v 4.01348 h -4.01348 z m 3.95774,12.04044 h 10.4239 l 1.67228,-1.67229 v -6.35467 h -12.09618 z"
           style="font-style:normal;font-variant:normal;font-weight:normal;font-stretch:normal;font-size:40.1348px;font-family:'ISL_ALPHABOT XEN';-inkscape-font-specification:'ISL_ALPHABOT XEN, Normal';font-variant-ligatures:normal;font-variant-caps:normal;font-variant-numeric:normal;font-variant-east-asian:normal;fill:#ffffff;fill-opacity:1;stroke:#ffffff;stroke-width:1.00338;stroke-opacity:1"
           id="path1036" />
        <path
           d="m 307.7478,612.66602 v -8.02696 l 12.04044,-12.04044 h 8.02696 v 20.0674 h -4.01348 V 596.6121 h -2.34119 l -9.69925,9.69924 v 6.35468 z"
           style="font-style:normal;font-variant:normal;font-weight:normal;font-stretch:normal;font-size:40.1348px;font-family:'ISL_ALPHABOT XEN';-inkscape-font-specification:'ISL_ALPHABOT XEN, Normal';font-variant-ligatures:normal;font-variant-caps:normal;font-variant-numeric:normal;font-variant-east-asian:normal;fill:#ffffff;fill-opacity:1;stroke:#ffffff;stroke-width:1.00338;stroke-opacity:1"
           id="path1038" />
        <path
           d="m 359.92299,612.66602 h -4.01348 V 596.6121 h -2.3412 l -5.68576,5.68576 v 6.35468 h -4.01348 v -6.35468 l -5.68576,-5.68576 h -2.3412 v 16.05392 h -4.01348 v -20.0674 h 8.02696 l 6.02022,6.02022 6.02022,-6.02022 h 8.02696 z"
           style="font-style:normal;font-variant:normal;font-weight:normal;font-stretch:normal;font-size:40.1348px;font-family:'ISL_ALPHABOT XEN';-inkscape-font-specification:'ISL_ALPHABOT XEN, Normal';font-variant-ligatures:normal;font-variant-caps:normal;font-variant-numeric:normal;font-variant-east-asian:normal;fill:#ffffff;fill-opacity:1;stroke:#ffffff;stroke-width:1.00338;stroke-opacity:1"
           id="path1040" />
      </g>
    </g>
  </a>
  <a
     id="a4674"
     xlink:href="https://t.me/sub_ROZEA">
    <g
       id="g4635">
      <rect
         y="345.79462"
         x="44.771057"
         height="58.956017"
         width="249.1627"
         id="rect4589"
         style="fill:#0a0069;fill-opacity:1;stroke-width:0.27805048" />
      <g
         aria-label="TeLeGRAM"
         id="text886"
         style="font-style:normal;font-variant:normal;font-weight:normal;font-stretch:normal;font-size:40.1348px;line-height:1.25;font-family:'ISL_ALPHABOT XEN';-inkscape-font-specification:'ISL_ALPHABOT XEN, Normal';font-variant-ligatures:normal;font-variant-caps:normal;font-variant-numeric:normal;font-variant-east-asian:normal;fill:#ffffff;fill-opacity:1;stroke:#ffffff;stroke-width:1.00338;stroke-opacity:1"
         transform="translate(-90.801989,-286.56787)">
        <path
           d="m 163.78973,651.80681 h 20.0674 v 4.01348 h -8.02696 v 16.05392 h -4.01348 v -16.05392 h -8.02696 z"
           style="font-style:normal;font-variant:normal;font-weight:normal;font-stretch:normal;font-size:40.1348px;font-family:'ISL_ALPHABOT XEN';-inkscape-font-specification:'ISL_ALPHABOT XEN, Normal';font-variant-ligatures:normal;font-variant-caps:normal;font-variant-numeric:normal;font-variant-east-asian:normal;fill:#ffffff;fill-opacity:1;stroke:#ffffff;stroke-width:1.00338;stroke-opacity:1"
           id="path1043" />
        <path
           d="m 193.55632,655.82029 -1.67229,1.67228 v 2.3412 h 12.04044 v 4.01348 h -12.04044 v 2.34119 l 1.67229,1.67229 h 2.34119 v 0 h 12.04044 v 4.01348 h -16.05392 l -4.01348,-4.01348 v -12.04044 l 4.01348,-4.01348 h 16.05392 v 4.01348 z"
           style="font-style:normal;font-variant:normal;font-weight:normal;font-stretch:normal;font-size:40.1348px;font-family:'ISL_ALPHABOT XEN';-inkscape-font-specification:'ISL_ALPHABOT XEN, Normal';font-variant-ligatures:normal;font-variant-caps:normal;font-variant-numeric:normal;font-variant-east-asian:normal;fill:#ffffff;fill-opacity:1;stroke:#ffffff;stroke-width:1.00338;stroke-opacity:1"
           id="path1045" />
        <path
           d="m 211.95137,651.80681 h 4.01348 v 16.05392 h 12.04044 v 4.01348 h -16.05392 z"
           style="font-style:normal;font-variant:normal;font-weight:normal;font-stretch:normal;font-size:40.1348px;font-family:'ISL_ALPHABOT XEN';-inkscape-font-specification:'ISL_ALPHABOT XEN, Normal';font-variant-ligatures:normal;font-variant-caps:normal;font-variant-numeric:normal;font-variant-east-asian:normal;fill:#ffffff;fill-opacity:1;stroke:#ffffff;stroke-width:1.00338;stroke-opacity:1"
           id="path1047" />
        <path
           d="m 237.70446,655.82029 -1.67229,1.67228 v 2.3412 h 12.04044 v 4.01348 h -12.04044 v 2.34119 l 1.67229,1.67229 h 2.34119 v 0 h 12.04044 v 4.01348 h -16.05392 l -4.01348,-4.01348 v -12.04044 l 4.01348,-4.01348 h 16.05392 v 4.01348 z"
           style="font-style:normal;font-variant:normal;font-weight:normal;font-stretch:normal;font-size:40.1348px;font-family:'ISL_ALPHABOT XEN';-inkscape-font-specification:'ISL_ALPHABOT XEN, Normal';font-variant-ligatures:normal;font-variant-caps:normal;font-variant-numeric:normal;font-variant-east-asian:normal;fill:#ffffff;fill-opacity:1;stroke:#ffffff;stroke-width:1.00338;stroke-opacity:1"
           id="path1049" />
        <path
           d="m 256.09951,655.82029 4.01348,-4.01348 h 16.05392 v 4.01348 h -14.38164 l -1.67228,1.67228 v 8.69587 l 1.67228,1.67229 h 8.69588 l 1.67228,-1.67229 v -2.34119 h -4.01348 v -4.01348 h 8.02696 v 8.02696 l -4.01348,4.01348 h -12.04044 l -4.01348,-4.01348 z"
           style="font-style:normal;font-variant:normal;font-weight:normal;font-stretch:normal;font-size:40.1348px;font-family:'ISL_ALPHABOT XEN';-inkscape-font-specification:'ISL_ALPHABOT XEN, Normal';font-variant-ligatures:normal;font-variant-caps:normal;font-variant-numeric:normal;font-variant-east-asian:normal;fill:#ffffff;fill-opacity:1;stroke:#ffffff;stroke-width:1.00338;stroke-opacity:1"
           id="path1051" />
        <path
           d="m 280.18033,651.80681 h 20.0674 v 12.04044 l -2.00674,2.00674 2.00674,2.00674 v 4.01348 h -4.01348 v -2.3412 l -1.67228,-1.67228 h -10.36816 v 4.01348 h -4.01348 z m 3.95774,12.04044 h 10.4239 l 1.67228,-1.67229 v -6.35467 h -12.09618 z"
           style="font-style:normal;font-variant:normal;font-weight:normal;font-stretch:normal;font-size:40.1348px;font-family:'ISL_ALPHABOT XEN';-inkscape-font-specification:'ISL_ALPHABOT XEN, Normal';font-variant-ligatures:normal;font-variant-caps:normal;font-variant-numeric:normal;font-variant-east-asian:normal;fill:#ffffff;fill-opacity:1;stroke:#ffffff;stroke-width:1.00338;stroke-opacity:1"
           id="path1053" />
        <path
           d="m 304.26115,671.87421 v -8.02696 l 12.04044,-12.04044 h 8.02696 v 20.0674 h -4.01348 v -16.05392 h -2.34119 l -9.69925,9.69924 v 6.35468 z"
           style="font-style:normal;font-variant:normal;font-weight:normal;font-stretch:normal;font-size:40.1348px;font-family:'ISL_ALPHABOT XEN';-inkscape-font-specification:'ISL_ALPHABOT XEN, Normal';font-variant-ligatures:normal;font-variant-caps:normal;font-variant-numeric:normal;font-variant-east-asian:normal;fill:#ffffff;fill-opacity:1;stroke:#ffffff;stroke-width:1.00338;stroke-opacity:1"
           id="path1055" />
        <path
           d="m 356.43632,671.87421 h -4.01348 v -16.05392 h -2.34119 l -5.68577,5.68576 v 6.35468 h -4.01348 v -6.35468 l -5.68576,-5.68576 h -2.3412 v 16.05392 h -4.01348 v -20.0674 h 8.02696 l 6.02022,6.02022 6.02022,-6.02022 h 8.02696 z"
           style="font-style:normal;font-variant:normal;font-weight:normal;font-stretch:normal;font-size:40.1348px;font-family:'ISL_ALPHABOT XEN';-inkscape-font-specification:'ISL_ALPHABOT XEN, Normal';font-variant-ligatures:normal;font-variant-caps:normal;font-variant-numeric:normal;font-variant-east-asian:normal;fill:#ffffff;fill-opacity:1;stroke:#ffffff;stroke-width:1.00338;stroke-opacity:1"
           id="path1057" />
      </g>
    </g>
  </a>
  <a
     id="a4648"
     xlink:href="https://twitter.com/sub_ROZEA">
    <g
       id="g4610">
      <rect
         y="228.07295"
         x="44.771057"
         height="58.956017"
         width="249.1627"
         id="rect4585"
         style="fill:#0a0069;fill-opacity:1;stroke-width:0.27805048" />
      <g
         aria-label="TWITTeR"
         id="text890"
         style="font-style:normal;font-variant:normal;font-weight:normal;font-stretch:normal;font-size:40.1348px;line-height:1.25;font-family:'ISL_ALPHABOT XEN';-inkscape-font-specification:'ISL_ALPHABOT XEN, Normal';font-variant-ligatures:normal;font-variant-caps:normal;font-variant-numeric:normal;font-variant-east-asian:normal;fill:#ffffff;fill-opacity:1;stroke:#ffffff;stroke-width:1.00338;stroke-opacity:1"
         transform="translate(-90.801989,-286.56787)">
        <path
           d="m 181.85033,534.08513 h 20.0674 v 4.01348 h -8.02696 v 16.05392 h -4.01348 v -16.05392 h -8.02696 z"
           style="font-style:normal;font-variant:normal;font-weight:normal;font-stretch:normal;font-size:40.1348px;font-family:'ISL_ALPHABOT XEN';-inkscape-font-specification:'ISL_ALPHABOT XEN, Normal';font-variant-ligatures:normal;font-variant-caps:normal;font-variant-numeric:normal;font-variant-east-asian:normal;fill:#ffffff;fill-opacity:1;stroke:#ffffff;stroke-width:1.00338;stroke-opacity:1"
           id="path1009" />
        <path
           d="m 234.0255,534.08513 v 20.0674 h -8.02696 l -6.02022,-6.02022 -6.02022,6.02022 h -8.02696 v -20.0674 h 4.01348 v 16.05392 h 2.3412 l 5.68576,-5.68577 v -6.35467 h 4.01348 v 6.35467 l 5.68577,5.68577 h 2.34119 v -16.05392 z"
           style="font-style:normal;font-variant:normal;font-weight:normal;font-stretch:normal;font-size:40.1348px;font-family:'ISL_ALPHABOT XEN';-inkscape-font-specification:'ISL_ALPHABOT XEN, Normal';font-variant-ligatures:normal;font-variant-caps:normal;font-variant-numeric:normal;font-variant-east-asian:normal;fill:#ffffff;fill-opacity:1;stroke:#ffffff;stroke-width:1.00338;stroke-opacity:1"
           id="path1011" />
        <path
           d="m 238.03896,534.08513 h 4.01348 v 20.0674 h -4.01348 z"
           style="font-style:normal;font-variant:normal;font-weight:normal;font-stretch:normal;font-size:40.1348px;font-family:'ISL_ALPHABOT XEN';-inkscape-font-specification:'ISL_ALPHABOT XEN, Normal';font-variant-ligatures:normal;font-variant-caps:normal;font-variant-numeric:normal;font-variant-east-asian:normal;fill:#ffffff;fill-opacity:1;stroke:#ffffff;stroke-width:1.00338;stroke-opacity:1"
           id="path1013" />
        <path
           d="m 246.06587,534.08513 h 20.0674 v 4.01348 h -8.02696 v 16.05392 h -4.01348 v -16.05392 h -8.02696 z"
           style="font-style:normal;font-variant:normal;font-weight:normal;font-stretch:normal;font-size:40.1348px;font-family:'ISL_ALPHABOT XEN';-inkscape-font-specification:'ISL_ALPHABOT XEN, Normal';font-variant-ligatures:normal;font-variant-caps:normal;font-variant-numeric:normal;font-variant-east-asian:normal;fill:#ffffff;fill-opacity:1;stroke:#ffffff;stroke-width:1.00338;stroke-opacity:1"
           id="path1015" />
        <path
           d="m 270.14669,534.08513 h 20.0674 v 4.01348 h -8.02696 v 16.05392 h -4.01348 v -16.05392 h -8.02696 z"
           style="font-style:normal;font-variant:normal;font-weight:normal;font-stretch:normal;font-size:40.1348px;font-family:'ISL_ALPHABOT XEN';-inkscape-font-specification:'ISL_ALPHABOT XEN, Normal';font-variant-ligatures:normal;font-variant-caps:normal;font-variant-numeric:normal;font-variant-east-asian:normal;fill:#ffffff;fill-opacity:1;stroke:#ffffff;stroke-width:1.00338;stroke-opacity:1"
           id="path1017" />
        <path
           d="m 299.91327,538.09861 -1.67228,1.67228 v 2.3412 h 12.04044 v 4.01348 h -12.04044 v 2.34119 l 1.67228,1.67229 h 2.3412 v 0 h 12.04044 v 4.01348 h -16.05392 l -4.01348,-4.01348 v -12.04044 l 4.01348,-4.01348 h 16.05392 v 4.01348 z"
           style="font-style:normal;font-variant:normal;font-weight:normal;font-stretch:normal;font-size:40.1348px;font-family:'ISL_ALPHABOT XEN';-inkscape-font-specification:'ISL_ALPHABOT XEN, Normal';font-variant-ligatures:normal;font-variant-caps:normal;font-variant-numeric:normal;font-variant-east-asian:normal;fill:#ffffff;fill-opacity:1;stroke:#ffffff;stroke-width:1.00338;stroke-opacity:1"
           id="path1019" />
        <path
           d="m 318.30832,534.08513 h 20.0674 v 12.04044 l -2.00674,2.00674 2.00674,2.00674 v 4.01348 h -4.01348 v -2.3412 l -1.67228,-1.67228 H 322.3218 v 4.01348 h -4.01348 z m 3.95774,12.04044 h 10.4239 l 1.67228,-1.67229 v -6.35467 h -12.09618 z"
           style="font-style:normal;font-variant:normal;font-weight:normal;font-stretch:normal;font-size:40.1348px;font-family:'ISL_ALPHABOT XEN';-inkscape-font-specification:'ISL_ALPHABOT XEN, Normal';font-variant-ligatures:normal;font-variant-caps:normal;font-variant-numeric:normal;font-variant-east-asian:normal;fill:#ffffff;fill-opacity:1;stroke:#ffffff;stroke-width:1.00338;stroke-opacity:1"
           id="path1021" />
      </g>
    </g>
  </a>
  <a
     id="a4637"
     xlink:href="https://pixiv.me/sub_rozea">
    <g
       id="g4599">
      <rect
         style="fill:#0a0069;fill-opacity:1;stroke-width:0.27805048"
         id="rect4583"
         width="249.1627"
         height="58.956017"
         x="44.771069"
         y="166.21089" />
      <a
         id="a1191">
        <g
           aria-label="PIXIV"
           id="text894"
           style="font-style:normal;font-variant:normal;font-weight:normal;font-stretch:normal;font-size:40.1348px;line-height:1.25;font-family:'ISL_ALPHABOT XEN';-inkscape-font-specification:'ISL_ALPHABOT XEN, Normal';font-variant-ligatures:normal;font-variant-caps:normal;font-variant-numeric:normal;font-variant-east-asian:normal;fill:#ffffff;fill-opacity:1;stroke:#ffffff;stroke-width:1.32292;stroke-linecap:round;stroke-linejoin:round;stroke-miterlimit:4;stroke-dasharray:none;stroke-opacity:1"
           transform="translate(-90.801989,-286.56787)">
          <path
             d="m 225.99856,488.27699 v -4.01348 h 6.35468 l 1.67228,-1.67229 v -6.35467 h -12.04044 v 16.05392 h -4.01348 v -20.0674 h 20.0674 v 12.04044 l -4.01348,4.01348 z"
             style="font-style:normal;font-variant:normal;font-weight:normal;font-stretch:normal;font-size:40.1348px;font-family:'ISL_ALPHABOT XEN';-inkscape-font-specification:'ISL_ALPHABOT XEN, Normal';font-variant-ligatures:normal;font-variant-caps:normal;font-variant-numeric:normal;font-variant-east-asian:normal;fill:#ffffff;fill-opacity:1;stroke:#ffffff;stroke-width:1.32292;stroke-linecap:round;stroke-linejoin:round;stroke-miterlimit:4;stroke-dasharray:none;stroke-opacity:1"
             id="path998" />
          <path
             d="m 242.05242,472.22307 h 4.01348 v 20.0674 h -4.01348 z"
             style="font-style:normal;font-variant:normal;font-weight:normal;font-stretch:normal;font-size:40.1348px;font-family:'ISL_ALPHABOT XEN';-inkscape-font-specification:'ISL_ALPHABOT XEN, Normal';font-variant-ligatures:normal;font-variant-caps:normal;font-variant-numeric:normal;font-variant-east-asian:normal;fill:#ffffff;fill-opacity:1;stroke:#ffffff;stroke-width:1.32292;stroke-linecap:round;stroke-linejoin:round;stroke-miterlimit:4;stroke-dasharray:none;stroke-opacity:1"
             id="path1000" />
          <path
             d="m 266.13325,472.22307 h 4.01348 v 8.02696 l -2.00674,2.00674 2.00674,2.00674 v 8.02696 h -4.01348 v -6.35468 l -1.67228,-1.67228 h -8.69587 l -1.67229,1.67228 v 6.35468 h -4.01348 v -8.02696 l 2.00674,-2.00674 -2.00674,-2.00674 v -8.02696 h 4.01348 v 6.35467 l 1.67229,1.67229 h 8.69587 l 1.67228,-1.67229 z"
             style="font-style:normal;font-variant:normal;font-weight:normal;font-stretch:normal;font-size:40.1348px;font-family:'ISL_ALPHABOT XEN';-inkscape-font-specification:'ISL_ALPHABOT XEN, Normal';font-variant-ligatures:normal;font-variant-caps:normal;font-variant-numeric:normal;font-variant-east-asian:normal;fill:#ffffff;fill-opacity:1;stroke:#ffffff;stroke-width:1.32292;stroke-linecap:round;stroke-linejoin:round;stroke-miterlimit:4;stroke-dasharray:none;stroke-opacity:1"
             id="path1002" />
          <path
             d="m 274.16015,472.22307 h 4.01348 v 20.0674 h -4.01348 z"
             style="font-style:normal;font-variant:normal;font-weight:normal;font-stretch:normal;font-size:40.1348px;font-family:'ISL_ALPHABOT XEN';-inkscape-font-specification:'ISL_ALPHABOT XEN, Normal';font-variant-ligatures:normal;font-variant-caps:normal;font-variant-numeric:normal;font-variant-east-asian:normal;fill:#ffffff;fill-opacity:1;stroke:#ffffff;stroke-width:1.32292;stroke-linecap:round;stroke-linejoin:round;stroke-miterlimit:4;stroke-dasharray:none;stroke-opacity:1"
             id="path1004" />
          <path
             d="m 282.18707,472.22307 h 4.01348 v 16.05392 h 6.35467 l 5.68577,-5.68577 v -10.36815 h 4.01348 v 12.04044 l -8.02696,8.02696 h -12.04044 z"
             style="font-style:normal;font-variant:normal;font-weight:normal;font-stretch:normal;font-size:40.1348px;font-family:'ISL_ALPHABOT XEN';-inkscape-font-specification:'ISL_ALPHABOT XEN, Normal';font-variant-ligatures:normal;font-variant-caps:normal;font-variant-numeric:normal;font-variant-east-asian:normal;fill:#ffffff;fill-opacity:1;stroke:#ffffff;stroke-width:1.32292;stroke-linecap:round;stroke-linejoin:round;stroke-miterlimit:4;stroke-dasharray:none;stroke-opacity:1"
             id="path1006" />
        </g>
      </a>
    </g>
  </a>
  <path
     id="path1118"
     style="fill:#ff5bff;fill-opacity:1;stroke:none;stroke-width:2.12818;stroke-linecap:round;stroke-linejoin:round;stroke-miterlimit:4;stroke-dasharray:none;stroke-opacity:1"
     d="m 59.840597,32.250793 a 6.0726905,6.0726905 0 0 1 -6.072691,6.072691 6.0726905,6.0726905 0 0 1 -6.07269,-6.072691 6.0726905,6.0726905 0 0 1 6.07269,-6.07269 6.0726905,6.0726905 0 0 1 6.072691,6.07269 z" />
</svg>
