<svg width="49.236mm" height="59.572mm" version="1.1" viewBox="0 0 49.236 59.572" xmlns="http://www.w3.org/2000/svg">
 <path d="m15.566 51.83c-3.6043-0.22023-6.324-1.1529-8.362-2.8675-2.6696-2.2461-4.0106-5.1347-4.338-9.3445-0.1657-2.1303-0.16482-17.857 0.0010999-19.798 0.29341-3.4327 1.181-5.8452 2.8882-7.8502 1.8974-2.2283 4.216-3.4769 7.5961-4.0905 1.5781-0.28647 1.8686-0.29398 11.408-0.29463 8.8016-6e-4 9.9422 0.023478 11.31 0.23885 4.5602 0.71803 7.6487 2.8132 9.4014 6.3776 0.82638 1.6806 1.2748 3.4392 1.4447 5.6663 0.18051 2.3663 0.17172 17.743-0.0114 19.885-0.3968 4.6432-2.0808 7.7603-5.3836 9.9652-1.9161 1.2792-4.142 1.8951-7.6337 2.1122-2.3471 0.14599-15.931 0.14581-18.321-2.65e-4zm18.255-3.965c3.262-0.21322 5.024-0.83478 6.6114-2.3323 1.5063-1.421 2.2668-3.2395 2.5116-6.0065 0.17066-1.9282 0.17217-17.881 2e-3 -19.633-0.26593-2.7352-1.0341-4.5485-2.521-5.9512-1.6075-1.5164-3.3151-2.1131-6.6701-2.3304-2.4089-0.15605-15.314-0.15385-17.792 3e-3 -3.2427 0.20535-5.0195 0.83272-6.6114 2.3344-1.5063 1.421-2.2667 3.2395-2.5116 6.0065-0.17066 1.9282-0.17216 17.881-0.00185 19.633 0.26594 2.7352 1.0341 4.5485 2.521 5.9512 1.5534 1.4654 3.3801 2.1337 6.3394 2.3193 2.3007 0.14428 15.937 0.1487 18.122 0.0058zm-10.913-6.8803c-3.6707-0.66096-6.935-3.2307-8.4471-6.65-1.2423-2.809-1.2475-6.3662-0.01352-9.1565 1.1208-2.5343 3.0446-4.5094 5.5505-5.6987 1.5718-0.74591 2.4795-0.97527 4.233-1.0696 2.8494-0.15328 5.3476 0.59328 7.5664 2.2612 2.8431 2.1372 4.4613 5.4627 4.4458 9.1362-0.0125 2.9516-1.0017 5.4877-3.0029 7.6992-1.2675 1.4007-3.5113 2.753-5.4377 3.2773-0.93242 0.25377-3.9198 0.37641-4.8944 0.20092zm3.7395-4.0353c3.3148-0.78154 5.6361-3.7486 5.6394-7.2083 0.0052-5.5154-5.8337-9.1047-10.763-6.6164-0.93703 0.47301-2.334 1.7428-2.9172 2.6515-1.4711 2.2925-1.4954 5.4464-0.06025 7.801 0.95216 1.5622 2.8124 2.951 4.4989 3.3588 1.0372 0.2508 2.571 0.25648 3.6022 0.01333zm8.9595-16.655c-0.8458-0.37753-1.5239-1.4587-1.5183-2.4208 0.0077-1.3289 1.3407-2.6815 2.6427-2.6815 1.317 0 2.6398 1.3581 2.6398 2.7103 0 0.98486-0.74749 2.1079-1.6232 2.4388-0.51068 0.19295-1.6601 0.16782-2.1409-0.04679z" stroke-width=".13228"/>
</svg>
