<?xml version="1.0" encoding="UTF-8"?>
<svg width="118.9" height="43.98" data-name="Layer 1" version="1.1" viewBox="0 0 118.9 43.98" xmlns="http://www.w3.org/2000/svg" xmlns:cc="http://creativecommons.org/ns#" xmlns:dc="http://purl.org/dc/elements/1.1/" xmlns:rdf="http://www.w3.org/1999/02/22-rdf-syntax-ns#">
 <defs>
  <style>.cls-1{fill-rule:evenodd;}</style>
 </defs>
 <title>itaku-logo</title>
 <path class="cls-1" d="m79.58 43.98a22 22 0 0 0-2.15-1.38c-4.64-2.56-6.33-2.74-13.61-2.69-11.16-0.7-16.69-4.14-16.69-4.14a25.52 25.52 0 0 0-5.13-1.69 21.49 21.49 0 0 0-3.93-0.42h-1.56a32.35 32.35 0 0 1 3-2.6 8.12 8.12 0 0 1 3.2-2.73c0.06 0-1.9-3.12-14-6.5-3.88-1.37-15.77-2.56-18.34-4.03a17.9 17.9 0 0 1-9.86-10.78 6.61 6.61 0 0 1-0.44-3.52 14.83 14.83 0 0 0 5.45 5.19 4 4 0 0 1-1.58-1.09 4.34 4.34 0 0 1-0.92-3.51c0.28 0.6 4.14 4.88 5.12 5.07 0 0-1.82-1.52-1.39-3.33a31.48 31.48 0 0 0 12.94 8.26c8.07 2.62 8.86 3.1 8.86 3.1a86.66 86.66 0 0 0 15.39 3.69 9.11 9.11 0 0 1 4.3 3.07 3.87 3.87 0 0 0 2.17 1 29.44 29.44 0 0 1 10.28 0.53s11.7-11.83 28.12-13.88c-0.3 0.16 23.35-4.91 30.12-11.6a23.74 23.74 0 0 1-1.36 2.22 22.67 22.67 0 0 1-7.55 6.83c0.44-0.1 0.9-0.21 1.39-0.35s1.19-0.36 1.71-0.56a39 39 0 0 1-11.6 7.81 39 39 0 0 1-10.5 2.9 8 8 0 0 0 2.51 0s-18.19 7.75-17.59 12.82c0.16 1.3 1.59 2.21 2.72 2.77a73.4 73.4 0 0 0 8 1.56c-1.38 1-5.12 2.6-7.25 2.37a11 11 0 0 0 3.83 1.95 11.52 11.52 0 0 1-5.58-0.48s2.48 2.89 1.92 4.14z"/>
 <metadata>
  <rdf:RDF>
   <cc:Work rdf:about="">
    <dc:title>itaku-logo</dc:title>
   </cc:Work>
  </rdf:RDF>
 </metadata>
</svg>
