<svg width="49.236mm" height="59.572mm" version="1.1" viewBox="0 0 49.236 59.572" xmlns="http://www.w3.org/2000/svg">
 <path d="m36.343 49.064c-1.3809-0.49115-1.8563-0.75982-4.9747-2.8113-3.6789-2.4202-5.8353-3.9093-8.1144-5.6034-1.4919-1.109-1.9251-1.5136-2.1767-2.0334-0.33538-0.6928-0.30312-1.2998 0.10192-1.918 0.11365-0.17345 1.1451-1.1923 2.2921-2.2642 9.1344-8.5359 11.386-10.879 11.232-11.688-0.15673-0.82206-1.6729-0.11656-5.9513 2.7693-14.729 9.9351-13.979 9.4538-15.038 9.6521-1.6791 0.31453-2.5969 0.12992-8.1095-1.6312-2.3291-0.74412-2.8611-0.96759-3.2652-1.3717-0.46802-0.46802-0.59398-0.93215-0.39424-1.4527 0.26375-0.68734 1.8267-1.3953 15.702-7.1123 7.8214-3.2228 15.338-6.3338 16.704-6.9134 8.0504-3.4163 9.1418-3.7476 10.183-3.0908 0.55902 0.35261 0.90837 1.0733 0.90837 1.8739 0 0.59308-0.46713 4.0267-1.1834 8.6987-1.2199 7.957-3.545 22.459-3.6928 23.033-0.18213 0.70742-0.94342 1.6582-1.5993 1.9974-0.58621 0.30314-1.5279 0.25473-2.6232-0.13485z" stroke-width=".14675"/>
</svg>
