<svg width="49.236mm" height="59.572mm" version="1.1" viewBox="0 0 49.236 59.572" xmlns="http://www.w3.org/2000/svg">
 <path d="m17.22 45.56v-0.78638l-2.0319-0.056493c-4.2132-0.11715-6.6752-0.97187-8.7345-3.0324-1.0665-1.0671-1.748-2.1633-2.2309-3.5883-0.30011-0.88562-0.34013-1.1384-0.34254-2.1638-0.0042447-1.8037 0.46879-3.1133 1.7283-4.7847 1.8825-2.4983 5.5508-4.7592 9.1332-5.6292l0.95979-0.23309-0.87269-0.77644c-2.1372-1.9015-3.7699-4.5209-4.4863-7.1976l-0.23694-0.88526 0.3643-0.31278c0.58925-0.50592 1.7971-1.265 2.4226-1.5226 0.57287-0.23586 1.1593-0.31898 1.163-0.16486 0.0012 0.04354 0.06985 0.55416 0.15287 1.1347 0.48168 3.3685 1.5178 5.9915 3.1063 7.8637 0.23475 0.27669 0.3271 0.32968 0.3678 0.21111 0.02988-0.08708 0.1802-0.53832 0.334-1.0028 0.75983-2.2943 2.1517-4.5967 3.7363-6.1804 2.6999-2.6983 6.0485-3.925 10.272-3.7628 3.8392 0.14742 7.1173 1.5718 9.7112 4.2196 3.5639 3.6381 4.5951 8.8181 2.5582 12.851-1.0754 2.1291-4.497 5.8083-7.6363 8.2112-0.65876 0.50423-1.7037 1.3133-2.3222 1.7979-3.9849 3.1227-8.4211 5.0888-13.718 6.0797-0.73682 0.13784-1.6722 0.28151-2.0785 0.31927-0.40638 0.03778-0.86949 0.09328-1.0291 0.12339l-0.29027 0.05474z" stroke-width=".10555"/>
</svg>
